<?xml version="1.0" encoding="UTF-8" standalone="no"?>
<!-- Created with Inkscape (http://www.inkscape.org/) -->

<svg
   xmlns:dc="http://purl.org/dc/elements/1.1/"
   xmlns:cc="http://creativecommons.org/ns#"
   xmlns:rdf="http://www.w3.org/1999/02/22-rdf-syntax-ns#"
   xmlns:svg="http://www.w3.org/2000/svg"
   xmlns="http://www.w3.org/2000/svg"
   xmlns:xlink="http://www.w3.org/1999/xlink"
   xmlns:sodipodi="http://sodipodi.sourceforge.net/DTD/sodipodi-0.dtd"
   xmlns:inkscape="http://www.inkscape.org/namespaces/inkscape"
   width="1572.4375"
   height="853.40625"
   id="svg2"
   version="1.1"
   inkscape:version="0.92.3 (unknown)"
   sodipodi:docname="promoter_clear-4.eps"
   inkscape:export-filename="C:\Users\harlan\Dropbox\Presentations\2016_anatomici_fenniae\figures\tf_binding\Transcription_Factors-cleaned_11.svg.png"
   inkscape:export-xdpi="1000"
   inkscape:export-ydpi="1000">
  <defs
     id="defs4">
    <linearGradient
       inkscape:collect="always"
       id="linearGradient1456">
      <stop
         style="stop-color:#474747;stop-opacity:1"
         offset="0"
         id="stop1452" />
      <stop
         style="stop-color:#c9c9c9;stop-opacity:0.76923078"
         offset="1"
         id="stop1454" />
    </linearGradient>
    <linearGradient
       inkscape:collect="always"
       id="linearGradient1442">
      <stop
         style="stop-color:#7c7c7c;stop-opacity:1"
         offset="0"
         id="stop1438" />
      <stop
         style="stop-color:#afafaf;stop-opacity:1"
         offset="1"
         id="stop1440" />
    </linearGradient>
    <linearGradient
       inkscape:collect="always"
       id="linearGradient1436">
      <stop
         style="stop-color:#7c7c7c;stop-opacity:1"
         offset="0"
         id="stop1432" />
      <stop
         style="stop-color:#afafaf;stop-opacity:1"
         offset="1"
         id="stop1434" />
    </linearGradient>
    <linearGradient
       inkscape:collect="always"
       id="linearGradient1430">
      <stop
         style="stop-color:#7c7c7c;stop-opacity:1"
         offset="0"
         id="stop1426" />
      <stop
         style="stop-color:#afafaf;stop-opacity:1"
         offset="1"
         id="stop1428" />
    </linearGradient>
    <linearGradient
       id="linearGradient1246"
       inkscape:collect="always">
      <stop
         id="stop1242"
         offset="0"
         style="stop-color:#7c7c7c;stop-opacity:1" />
      <stop
         id="stop1244"
         offset="1"
         style="stop-color:#afafaf;stop-opacity:1" />
    </linearGradient>
    <linearGradient
       id="linearGradient3983">
      <stop
         id="stop3985"
         offset="0"
         style="stop-color:#54ecff;stop-opacity:0.60000002;" />
      <stop
         id="stop3987"
         offset="1"
         style="stop-color:#1cc3d8;stop-opacity:0.2" />
    </linearGradient>
    <linearGradient
       id="linearGradient5739">
      <stop
         style="stop-color:#54baff;stop-opacity:0.6"
         offset="0"
         id="stop5741" />
      <stop
         style="stop-color:#54baff;stop-opacity:0.2"
         offset="1"
         id="stop5743" />
    </linearGradient>
    <linearGradient
       inkscape:collect="always"
       xlink:href="#linearGradient1430"
       id="linearGradient1204"
       x1="1810.9111"
       y1="452.62741"
       x2="1668.4314"
       y2="309.94839"
       gradientUnits="userSpaceOnUse"
       gradientTransform="translate(14,-2)" />
    <linearGradient
       gradientTransform="translate(380.52904,-6.157094)"
       inkscape:collect="always"
       xlink:href="#linearGradient1436"
       id="linearGradient1204-6"
       x1="1810.9111"
       y1="452.62741"
       x2="1668.4314"
       y2="309.94839"
       gradientUnits="userSpaceOnUse" />
    <linearGradient
       gradientTransform="translate(380.0936,362.92343)"
       inkscape:collect="always"
       xlink:href="#linearGradient1246"
       id="linearGradient1204-6-9"
       x1="1810.9111"
       y1="452.62741"
       x2="1668.4314"
       y2="309.94839"
       gradientUnits="userSpaceOnUse" />
    <linearGradient
       gradientTransform="translate(12.14417,365.00004)"
       inkscape:collect="always"
       xlink:href="#linearGradient1442"
       id="linearGradient1204-6-9-3"
       x1="1810.9111"
       y1="452.62741"
       x2="1668.4314"
       y2="309.94839"
       gradientUnits="userSpaceOnUse" />
    <linearGradient
       inkscape:collect="always"
       xlink:href="#linearGradient1456"
       id="linearGradient1458"
       x1="2457.7756"
       y1="784.80499"
       x2="994.81488"
       y2="139.25"
       gradientUnits="userSpaceOnUse" />
  </defs>
  <sodipodi:namedview
     id="base"
     pagecolor="#ffffff"
     bordercolor="#666666"
     borderopacity="1.0"
     inkscape:pageopacity="0.0"
     inkscape:pageshadow="2"
     inkscape:zoom="0.24748738"
     inkscape:cx="662.47185"
     inkscape:cy="391.9627"
     inkscape:document-units="px"
     inkscape:current-layer="layer1"
     showgrid="false"
     inkscape:window-width="1869"
     inkscape:window-height="1056"
     inkscape:window-x="51"
     inkscape:window-y="24"
     inkscape:window-maximized="1"
     showguides="true"
     inkscape:guide-bbox="true"
     fit-margin-top="0"
     fit-margin-left="0"
     fit-margin-right="0"
     fit-margin-bottom="0">
    <inkscape:grid
       type="xygrid"
       id="grid2985"
       empspacing="5"
       visible="true"
       enabled="true"
       snapvisiblegridlinesonly="true"
       originx="-922.34375"
       originy="-176.64343"
       spacingx="1"
       spacingy="1" />
  </sodipodi:namedview>
  <metadata
     id="metadata7">
    <rdf:RDF>
      <cc:Work
         rdf:about="">
        <dc:format>image/svg+xml</dc:format>
        <dc:type
           rdf:resource="http://purl.org/dc/dcmitype/StillImage" />
        <dc:title></dc:title>
      </cc:Work>
    </rdf:RDF>
  </metadata>
  <g
     inkscape:label="Layer 1"
     inkscape:groupmode="layer"
     id="layer1"
     transform="translate(-922.34375,-22.3125)">
    <path
       style="fill:#000000;fill-opacity:1;fill-rule:evenodd;stroke:url(#linearGradient1204-6-9-3);stroke-width:14;stroke-linecap:butt;stroke-linejoin:miter;stroke-miterlimit:4;stroke-dasharray:none;stroke-opacity:1"
       d="m 1680.5757,674.94839 146.7846,146.7846"
       id="path1018-5-0-7-2-9"
       inkscape:connector-curvature="0"
       sodipodi:nodetypes="cc" />
    <path
       style="fill:#000000;fill-opacity:1;fill-rule:evenodd;stroke:url(#linearGradient1204-6-9);stroke-width:14;stroke-linecap:butt;stroke-linejoin:miter;stroke-miterlimit:4;stroke-dasharray:none;stroke-opacity:1"
       d="m 2048.5251,672.87181 146.7846,146.78461"
       id="path1018-5-0-7-2"
       inkscape:connector-curvature="0"
       sodipodi:nodetypes="cc" />
    <path
       style="fill:#000000;fill-opacity:1;fill-rule:evenodd;stroke:url(#linearGradient1204-6);stroke-width:14;stroke-linecap:butt;stroke-linejoin:miter;stroke-miterlimit:4;stroke-dasharray:none;stroke-opacity:1"
       d="m 2048.9605,303.79129 146.7846,146.7846"
       id="path1018-5-0-7"
       inkscape:connector-curvature="0"
       sodipodi:nodetypes="cc" />
    <path
       style="fill:#000000;fill-opacity:1;fill-rule:evenodd;stroke:url(#linearGradient1204);stroke-width:14;stroke-linecap:butt;stroke-linejoin:miter;stroke-miterlimit:4;stroke-dasharray:none;stroke-opacity:1"
       d="M 1682.4314,307.94839 1829.216,454.73298"
       id="path1018-5-0"
       inkscape:connector-curvature="0"
       sodipodi:nodetypes="cc" />
    <rect
       style="opacity:1;fill:none;fill-opacity:1;stroke:#afafaf;stroke-width:15;stroke-linejoin:miter;stroke-miterlimit:4;stroke-dasharray:none;stroke-dashoffset:0;stroke-opacity:1"
       id="rect1001"
       width="372.35565"
       height="372.35565"
       x="1680.668"
       y="305.91815"
       ry="6.5020189" />
    <path
       style="fill:#ff00af;fill-opacity:0.46632122;fill-rule:evenodd;stroke:none"
       d="m 1749.33,643.4336 c 0,20.78706 17.0344,37.63829 38.0474,37.63829 21.013,0 38.0474,-16.85123 38.0474,-37.63829 0,-20.78704 -17.0344,-37.63827 -38.0474,-37.63827 -21.013,0 -38.0474,16.85123 -38.0474,37.63827 z"
       id="path3022-2-4-4"
       inkscape:connector-curvature="0" />
    <path
       style="fill:#ff00af;fill-opacity:0.46632122;fill-rule:evenodd;stroke:none"
       d="m 1897.6025,625.9336 c 0,23.09673 18.9272,41.82032 42.2749,41.82032 23.3478,0 42.2749,-18.72359 42.2749,-41.82032 0,-23.09671 -18.9271,-41.8203 -42.2749,-41.8203 -23.3477,0 -42.2749,18.72359 -42.2749,41.8203 z"
       id="path3022-2-05"
       inkscape:connector-curvature="0" />
    <path
       style="fill:#ff00af;fill-opacity:0.46632122;fill-rule:evenodd;stroke:none"
       d="m 1963.1884,628.60319 c 0,23.09673 18.9272,41.82032 42.2749,41.82032 23.3478,0 42.2749,-18.72359 42.2749,-41.82032 0,-23.09671 -18.9271,-41.8203 -42.2749,-41.8203 -23.3477,0 -42.2749,18.72359 -42.2749,41.8203 z"
       id="path3022-2-7"
       inkscape:connector-curvature="0" />
    <path
       style="fill:#f700ff;fill-opacity:0.46632122;fill-rule:evenodd;stroke:none"
       d="m 1980.2212,425.5625 c 25.9418,0 46.9687,20.80572 46.9687,46.46875 0,19.40238 -12.0483,36.01206 -29.125,42.96875 -6.4386,-15.65338 -21.9455,-26.71875 -40.0625,-26.71875 -7.0901,0 -13.7776,1.72156 -19.6875,4.71875 -3.2269,-6.30076 -5.0625,-13.42245 -5.0625,-20.96875 0,-25.66303 21.0268,-46.46875 46.9688,-46.46875 z"
       id="path3022"
       inkscape:connector-curvature="0" />
    <path
       style="fill:#f700ff;fill-opacity:0.46632122;fill-rule:evenodd;stroke:none"
       d="m 1809.5024,495.375 c 18.6904,0 34.5424,11.98965 40.125,28.625 -11.0287,7.76646 -18.25,20.50203 -18.25,34.90625 0,4.45727 0.6896,8.7408 1.9688,12.78125 -6.7902,4.60284 -14.9899,7.3125 -23.8438,7.3125 -23.3478,0 -42.2812,-18.71578 -42.2812,-41.8125 0,-23.09672 18.9334,-41.8125 42.2812,-41.8125 z"
       id="path3022-2"
       inkscape:connector-curvature="0" />
    <path
       style="fill:#ff00af;fill-opacity:0.46632122;fill-rule:evenodd;stroke:none"
       d="m 1958.0024,490.3125 c 22.8131,0 41.25,18.26209 41.25,40.8125 0,22.5504 -18.4369,40.8125 -41.25,40.8125 -22.8132,0 -41.2812,-18.2621 -41.2812,-40.8125 -10e-5,-22.55041 18.468,-40.8125 41.2812,-40.8125 z"
       id="path3022-2-5"
       inkscape:connector-curvature="0" />
    <path
       style="fill:#ff00af;fill-opacity:0.46632122;fill-rule:evenodd;stroke:none"
       d="m 1874.6586,518.09375 c 22.8131,0 41.25,18.2621 41.25,40.8125 10e-5,22.55041 -18.4368,40.8125 -41.25,40.8125 -22.8131,0 -41.2812,-18.26209 -41.2812,-40.8125 -10e-5,-22.5504 18.468,-40.8125 41.2812,-40.8125 z"
       id="path3022-2-0"
       inkscape:connector-curvature="0" />
    <path
       style="fill:#ff00af;fill-opacity:0.46632122;fill-rule:evenodd;stroke:none"
       d="m 1889.4473,560.92296 c 0,23.09673 18.9272,41.82032 42.2749,41.82032 23.3478,0 42.2749,-18.72359 42.2749,-41.82032 0,-23.09671 -18.9271,-41.8203 -42.2749,-41.8203 -23.3477,0 -42.2749,18.72359 -42.2749,41.8203 z"
       id="path3022-2-4"
       inkscape:connector-curvature="0" />
    <path
       style="fill:#ff00af;fill-opacity:0.46632122;fill-rule:evenodd;stroke:none"
       d="m 1938.9448,588.70216 c 0,23.09673 18.9271,41.82032 42.2749,41.82032 23.3478,0 42.2748,-18.72359 42.2748,-41.82032 0,-23.09671 -18.927,-41.8203 -42.2748,-41.8203 -23.3478,0 -42.2749,18.72359 -42.2749,41.8203 z"
       id="path3022-2-02"
       inkscape:connector-curvature="0" />
    <path
       style="fill:#ff00af;fill-opacity:0.46632122;fill-rule:evenodd;stroke:none"
       d="m 1868.7889,642.14742 c 0,23.09673 18.9271,41.82032 42.2749,41.82032 23.3478,0 42.2748,-18.72359 42.2748,-41.82032 0,-23.09671 -18.927,-41.8203 -42.2748,-41.8203 -23.3478,0 -42.2749,18.72359 -42.2749,41.8203 z"
       id="path3022-2-1"
       inkscape:connector-curvature="0" />
    <path
       style="fill:#ff00b0;fill-opacity:0.46666667;stroke:none"
       d="m 1883.0917,644.86218 c -2.6535,8.53832 -10.3139,3.53921 -15.9418,16.9191 -5.628,13.37988 7.0342,33.14387 11.656,47.00947 7.0526,21.15776 22.1079,3.79319 26.7858,6.42857 12.8572,7.24327 -4.9223,40.75315 -25,30.71429 -18.4192,-9.20959 -52.8621,-58.2093 -34.2857,-99.28571 3.5584,-7.8683 13.6861,-16.18619 23.2143,-14.28572 8.0839,1.61242 15.2032,7.2494 13.5714,12.5 z"
       id="path3880"
       inkscape:connector-curvature="0"
       sodipodi:nodetypes="ssssssss" />
    <g
       style="font-size:88px;font-style:normal;font-variant:normal;font-weight:normal;font-stretch:normal;line-height:125%;letter-spacing:-8px;word-spacing:0px;fill:#4487ff;fill-opacity:1;stroke:none;font-family:Frutiger Neue 55;-inkscape-font-specification:'Frutiger Neue 55,'"
       id="text4013" />
    <g
       id="g1139"
       style="fill:url(#linearGradient1458);fill-opacity:1">
      <path
         sodipodi:nodetypes="ccccccccccccsccccccccccccccccccccccccccccccccccccccccccccccccscccscccccccccccccscccccccccsccccccsscccssccssccccsccscccccsccccscccsccccsccccccsccccccscscccccccsccccccccccccccsccccccccccccccccccccccccccccccccccsccccccccccccccccccsccccccccccccccssscscccccscccccsccccccccsccccccccc"
         inkscape:connector-curvature="0"
         id="path3967"
         d="m 1124.2524,653.15625 3.4375,0.5625 c 1.8922,0.30707 3.6094,0.73446 3.8125,0.9375 0.203,0.20303 -0.5763,3.24826 -1.7188,6.78125 -1.1422,3.53299 -2.2627,7.02669 -2.5,7.78125 l -0.4374,1.375 -3.1563,-0.625 c -1.7389,-0.34778 -3.3222,-0.79107 -3.5313,-1 -0.2089,-0.20893 0.6116,-3.85283 1.8438,-8.09375 z m 13.25,3.1875 3.1875,1.09375 c 1.7528,0.61102 3.1875,1.37329 3.1875,1.6875 0,0.31422 -1.2409,3.9108 -2.75,7.96875 l -2.75,7.375 -2.5,-0.625 c -1.3784,-0.33989 -2.9014,-1.00656 -3.375,-1.46875 l -0.8438,-0.84375 2.2188,-6.84375 c 1.2292,-3.76139 2.5583,-7.17403 2.9375,-7.59375 z m 11.875,4.28125 c 0.4189,-0.008 1.7802,0.39036 3.3125,0.96875 l 3.1875,1.21875 v 1.03125 c -4e-4,0.56692 -1.3356,3.82914 -2.9688,7.28125 l -2.9687,6.28125 -2.7813,-0.65625 c -1.5288,-0.36062 -3.0934,-0.93976 -3.4687,-1.28125 l -0.6875,-0.59375 3,-6.96875 c 1.6405,-3.83187 3.1039,-7.10393 3.25,-7.25 0.018,-0.0183 0.065,-0.0302 0.125,-0.0312 z m 117.2812,4.75 0.625,4.75 c 0.3524,2.6125 0.9101,6.4375 1.2188,8.5 l 0.4362,5.5809 c -3.6126,0.46247 -4.0428,0.65732 -6.8961,0.50508 l -2.4463,-10.08598 c -0.8484,-4.2625 -1.3172,-8.0875 -1.0626,-8.5 l 0.4688,-0.75 h 3.8125 z m -104.7812,0.0937 c 0.648,0.0566 2.0073,0.38235 3.5,0.875 l 3.5938,1.21875 -0.2813,0.65625 c -0.166,0.36511 -1.6625,3.02397 -3.3125,5.90625 l -3,5.25 -2.5,-0.0312 c -1.375,-0.008 -3.1133,-0.39259 -3.875,-0.875 l -1.4062,-0.90625 3.3124,-5.84375 c 1.814,-3.22167 3.4142,-6.02644 3.5626,-6.21875 0.037,-0.0481 0.1902,-0.0502 0.4062,-0.0312 z m 139.5938,0.40625 1.1874,0.0937 c 0.6643,0.055 2.5688,0.1675 4.2188,0.25 l 3,0.15625 v 1.25 c 0,0.6875 -0.9744,4.5125 -2.1562,8.5 h 0.031 l -2.1562,7.25 h -3.1876 c -1.753,0 -3.4329,-0.24553 -3.7187,-0.53125 l -0.5,-0.53125 1.625,-8.21875 1.6563,-8.21875 z m -48.9063,1.5 3.6632,16.29636 c -2.8512,0.71073 -4.0446,-0.0907 -8.0663,-0.58661 l -3.7219,-13.83471 1.4687,-0.9375 c 0.8061,-0.50978 2.6328,-0.9295 4.0626,-0.9375 z m 64.3125,1.125 c 1.7925,0.19746 8,2.11753 8,2.5625 0,0.20674 -1.6875,3.52478 -3.75,7.375 l -3.75,7 -3.5,-0.625 c -1.925,-0.34308 -3.5917,-0.71994 -3.7188,-0.84375 -0.2222,-0.21672 5.6753,-14.78591 6.25,-15.4375 0.044,-0.0504 0.2127,-0.0595 0.4688,-0.0312 z m -78.0938,1.625 2.5626,5.75 c 3.0187,6.8258 3.0475,7.22027 0.7812,7.8125 -0.9625,0.25153 -2.5454,0.4987 -3.5,0.5625 l -1.7188,0.125 -3.0937,-6.125 c -1.6939,-3.35566 -2.8678,-6.28839 -2.625,-6.53125 0.2429,-0.24287 2.0613,-0.71158 4.0313,-1.03125 z m -64.9374,0.25 c 1.3175,0 7.0312,2.1551 7.0312,2.65625 0,0.26613 -1.5658,2.39654 -3.4688,4.71875 l -3.4374,4.21875 -3.5626,-0.40625 c -1.947,-0.22732 -3.5312,-0.66457 -3.5312,-0.96875 0,-1.07979 6.2345,-10.21875 6.9688,-10.21875 z m 51.7812,2.875 3.125,5.0625 c 1.7174,2.79122 3.125,5.29577 3.125,5.5625 0,0.26674 -1.7359,0.5 -3.8438,0.5 h -3.8124 l -3.3126,-4.125 -3.3124,-4.09375 1.4062,-0.875 c 0.7612,-0.4821 1.8888,-0.89825 2.5312,-0.90625 0.6427,-0.008 1.8226,-0.25455 2.625,-0.5625 z m -107.0625,1.40625 c 0.6257,0.0366 1.8891,0.34898 3.2187,0.8125 l 3.2188,1.125 -0.4062,1.125 c -0.2283,0.62195 -1.431,4.19375 -2.6563,7.90625 l -2.2187,6.75 h -0.875 c -0.4694,0 -1.9514,-0.45126 -3.3126,-0.96875 l -2.4687,-0.9375 2.375,-7.6875 c 1.3047,-4.2285 2.5436,-7.85601 2.75,-8.0625 0.052,-0.0516 0.1664,-0.0747 0.375,-0.0625 z m 67.125,0.5 3.5937,1.1875 3.5938,1.1875 v 0.8125 c 0,0.45334 -1.4625,1.76151 -3.25,2.90625 l -3.25,2.09375 h -3.75 l -3.75,0.0312 v -0.8125 c 0,-0.44211 1.5315,-2.30789 3.4062,-4.125 l 3.4063,-3.28125 z m 26.3437,2.25 3.4376,2.71875 3.4062,2.75 v 1.15625 c 0,0.64166 -0.5625,1.37884 -1.25,1.65625 l -1.25,0.53125 3.0625,0.0625 3.0313,0.0937 3.4062,3.5 3.4062,3.5 h -1.5 c -0.8166,0 -3.2586,-0.9537 -5.4374,-2.09375 -2.1789,-1.14004 -4.8688,-2.19394 -5.9688,-2.34375 -1.1,-0.14981 -5.4939,-1.1084 -9.7812,-2.125 l -7.8126,-1.84375 -8.6874,2.125 -8.7188,2.125 -0.2812,-0.78125 -0.2813,-0.78125 -4.625,2.34375 c -2.5503,1.29114 -5.3441,2.375 -6.1875,2.375 h -1.5312 l 3.9062,-4 3.9062,-4 h 3.4063 3.4063 l -0.5938,1.5 c -0.7615,1.98437 -0.8955,2.00318 7.9062,-2.0625 l 7.6563,-3.53125 2.1563,0.65625 c 1.1885,0.35925 3.5062,1.47764 5.1562,2.46875 l 3,1.78125 4,0.59375 4,0.5625 -2.5938,-0.84375 c -3.2717,-1.09139 -7.9062,-4.12233 -7.9062,-5.15625 0,-0.43295 1.3983,-1.28398 3.0938,-1.875 l 3.0624,-1.0625 z m -82.5937,0.46875 2.4687,0.3125 c 1.354,0.18505 2.8255,0.68913 3.25,1.09375 l 0.75,0.71875 -2.5937,6.90625 c -1.4257,3.7876 -2.7565,7.15647 -2.9687,7.5 l -0.375,0.625 -3.0626,-0.4375 -3.0312,-0.46875 0.031,-1.125 c 0.022,-0.62507 1.2696,-4.275 2.7813,-8.125 z m 13.375,2.3125 2.5313,0.84375 2.5624,0.84375 -3.4687,7.25 -3.5,7.25 -1.7813,-0.0312 c -0.9839,-0.008 -2.3753,-0.38816 -3.0937,-0.84375 l -1.3125,-0.8125 2.7812,-6.78125 2.7813,-6.78125 1.25,-0.46875 1.25,-0.46875 z m 14.9375,2.1875 0.625,1 0.625,1 -3.0938,5.4375 -3.0937,5.40625 -2.2187,0.4375 c -3.513,0.68018 -4.7188,0.73505 -4.7188,0.21875 0,-0.26458 1.4507,-3.41458 3.2188,-7 l 3.2187,-6.5 h 2.7187 z m 12,1 0.625,1 0.625,1 -3.625,4.4375 -3.6562,4.4375 -2.6563,0.34375 c -1.4731,0.18947 -3.0178,0.19405 -3.4375,0 l -0.7812,-0.375 3.7812,-5.40625 3.75,-5.4375 h 2.6875 z m 63.9062,3 3.125,4.8125 c 1.7074,2.66065 3.0938,5.20102 3.0938,5.625 v 0.78125 l -2.75,-0.65625 -2.75,-0.65625 -3.7188,-4.21875 c -2.0459,-2.31531 -3.7339,-4.525 -3.75,-4.9375 l -0.031,-0.75 h 3.4062 3.375 z m 12.2813,1 1.9687,4.59375 c 1.0829,2.52603 2.24,5.62071 2.5626,6.90625 l 0.5937,2.34375 -2.3437,-0.5625 c -1.2875,-0.31601 -2.9259,-1.05148 -3.6563,-1.625 -1.2171,-0.95566 -6.1875,-9.88485 -6.1875,-11.125 0,-0.29328 1.5868,-0.53125 3.5312,-0.53125 z m 53.7813,1 c 1.5477,0 3.0872,0.24355 3.4062,0.5625 l 0.5625,0.59375 -2.4063,7.15625 c -1.3312,3.94355 -2.6212,7.75 -2.875,8.4375 l -0.4687,1.25 h -1.875 c -1.0256,0 -2.0854,-0.2416 -2.375,-0.53125 l -0.5313,-0.53125 1.375,-6.21875 c 0.7569,-3.42285 1.5986,-7.23125 1.875,-8.46875 l 0.5,-2.25 z m -6.7188,0 -2.8125,17.25 -0.4375,0.75 h -2.4375 -2.4375 l 0.3981,-18.12627 c 3.33,-0.45266 3.6157,-0.74439 7.7269,0.12627 z m 20.875,1 v 0.90625 c 0,0.50168 -1.8463,4.10168 -4.0938,8 l -4.0937,7.09375 h -2 -2.0313 l 0.625,-2.53125 c 0.3498,-1.39353 1.7328,-4.99353 3.0626,-8 l 2.4062,-5.46875 h 3.0625 z"
         style="fill:url(#linearGradient1458);fill-opacity:1" />
      <path
         sodipodi:nodetypes="cccc"
         inkscape:connector-curvature="0"
         id="path3900-8-7-6"
         d="m 1271.8993,704.58618 -2.3184,-16.43316 c -0.3113,-1.4497 -7.0463,-0.15716 -7.0463,-0.15716 l 2.8549,16.3696"
         style="fill:url(#linearGradient1458);fill-opacity:1;stroke:none" />
      <path
         sodipodi:nodetypes="cccc"
         inkscape:connector-curvature="0"
         id="path3900-8-7"
         d="m 1272.4648,665.17451 0.7291,19.03272 c 2.9714,0.65704 3.6345,0.59439 7.6378,0.10516 l 0.082,-19.54238"
         style="fill:url(#linearGradient1458);fill-opacity:1;stroke:none" />
      <path
         inkscape:export-ydpi="2400"
         inkscape:export-xdpi="2400"
         inkscape:export-filename="/home/kelvin/RNA—Paths.png"
         sodipodi:nodetypes="cccc"
         inkscape:connector-curvature="0"
         id="path3898-7-6"
         d="m 1282.2597,706.02295 -0.9399,-18.11546 c -3.5906,-0.38836 -3.6102,-0.22383 -7.6646,0.25784 l 1.6942,17.44417"
         style="fill:url(#linearGradient1458);fill-opacity:1;stroke:none" />
      <path
         inkscape:connector-curvature="0"
         id="path4046"
         d="m 1005.6586,97.0625 3.7813,0.65625 c -1.4086,1.40854 -2.5625,2.93162 -2.5625,3.40625 l 0,0.875 -5.25,1.03125 c -2.8875,0.56517 -5.5875,1.1023 -6,1.1875 -0.4125,0.0852 -0.75,-0.18125 -0.75,-0.59375 0,-0.4125 2.4422,-2.05738 5.4062,-3.65625 l 5.375,-2.90625 z m -12.375,8.3125 c 1.2387,0 2.5657,0.28456 2.9376,0.65625 l 0.6874,0.6875 -2.25,2.375 -2.25,2.375 -2,-0.53125 c -1.112,-0.29886 -2.8187,-0.5545 -3.7812,-0.5625 l -1.75,0 0,-0.75 c 0,-0.4125 1.4026,-1.5375 3.0938,-2.5 l 3.0624,-1.75 2.25,0 z m 11.5938,1 0,0.9375 c 0,0.5142 -0.4095,1.97467 -0.9062,3.28125 l -0.9063,2.375 -3.5937,-0.40625 c -1.9833,-0.23154 -3.8156,-0.75665 -4.0626,-1.15625 l -0.4374,-0.71875 1.5,-2.15625 1.5312,-2.15625 3.4375,0 3.4375,0 z m -24.5,5.96875 3.5,0.59375 c 1.925,0.33408 4.0659,0.93027 4.75,1.3125 l 1.25,0.6875 -1.625,2.3125 -1.625,2.3125 -2.625,-0.53125 c -1.4429,-0.28982 -3.9814,-1.03 -5.625,-1.65625 l -2.9688,-1.15625 2.4688,-1.9375 2.5,-1.9375 z m 12.875,3.03125 c 0.6243,0.003 2.7843,0.46794 4.8125,1.03125 l 3.6875,1 -1.0625,3.09375 -1.0625,3.0625 -2.625,-0.53125 c -1.4398,-0.2892 -3.8765,-1.01077 -5.4062,-1.59375 l -2.7813,-1.0625 1.6563,-2.5 1.625,-2.5 1.1562,0 z m -21.5312,3.84375 5.5624,1.75 5.5938,1.75 0,0.84375 c 0,0.45702 -0.5677,1.71996 -1.25,2.8125 -0.6823,1.09254 -1.5374,2 -1.9062,2 -1.5413,0 -11.8438,-4.35171 -11.8438,-5 0,-0.38843 0.8531,-1.48439 1.9062,-2.4375 l 1.9376,-1.71875 z m 15.0624,5.15625 c 0.9846,0.001 9.9572,3.5197 10.5938,4.15625 l 0.5938,0.59375 -0.6563,2.625 -0.6563,2.625 -1.3124,0 c -1.1724,0 -10.4867,-3.6741 -11.25,-4.4375 -0.461,-0.46084 2.0054,-5.56344 2.6874,-5.5625 z m -22.1562,2.65625 6.125,2.28125 6.125,2.28125 0,0.96875 c 0,0.5191 -0.4619,1.81116 -1.0312,2.875 l -1.0313,1.9375 -1.2187,-0.0625 c -0.6681,-0.0271 -3.7868,-1.26458 -6.9376,-2.75 l -5.75,-2.6875 1.875,-2.4375 1.8438,-2.40625 z m 16.625,7.21875 2.2188,0.53125 c 1.2202,0.30629 4.2742,1.45659 6.7812,2.53125 l 4.5625,1.9375 -1.0625,3.0625 c -0.5848,1.67768 -1.2622,3.0625 -1.5,3.0625 -0.5112,0 -12.7377,-5.11304 -13.1562,-5.5 -0.1582,-0.14612 0.2633,-1.45781 0.9374,-2.9375 l 1.2188,-2.6875 z m -22.7188,1.34375 c 0.7195,0.16912 3.4835,1.32845 6.6876,2.78125 l 6.6562,3 0,1.0625 c 0,0.58068 -0.4619,1.93616 -1.0312,3 -0.5694,1.06384 -1.2124,1.9375 -1.4063,1.9375 -0.8608,0 -13.5625,-6.26526 -13.5625,-6.6875 0,-0.4207 1.9468,-4.44004 2.4688,-5.09375 0.014,-0.0178 0.085,-0.0242 0.1874,0 z m 18.8126,8.78125 c 1.0641,0 12.4964,4.6497 13.2812,5.40625 0.14,0.13495 -0.2168,1.66589 -0.8125,3.375 l -1.0937,3.09375 -2.375,-0.90625 c -2.2605,-0.85946 -10.6418,-4.94528 -11.2813,-5.5 -0.1642,-0.1425 0.014,-1.4351 0.375,-2.875 l 0.6563,-2.59375 1.25,0 z m -23.4063,0 6.9375,3.46875 6.9062,3.5 -1.0624,3 c -0.5775,1.65637 -1.2267,3.03125 -1.4376,3.03125 -0.2107,0 -3.2896,-1.4507 -6.875,-3.21875 l -6.5312,-3.21875 0,-1.34375 c 0,-0.74311 0.4633,-2.21963 1.0312,-3.28125 l 1.0313,-1.9375 z m 18.75,9.6875 6.5937,2.78125 6.5938,2.8125 0,1.09375 c -0.01,0.60499 -0.2933,2.1375 -0.625,3.375 l -0.5938,2.25 -0.9374,0 c -0.5017,0 -3.5908,-1.37333 -6.875,-3.03125 l -5.9688,-3 0,-1.75 c 0.01,-0.95458 0.4176,-2.35313 0.9062,-3.125 l 0.9063,-1.40625 z m -22.0625,0.0625 6.625,3.71875 c 3.6407,2.036 6.625,3.83939 6.625,4.03125 0,0.19186 -0.4457,1.54215 -1,3 l -1,2.65625 -6.25,-3.40625 -6.25,-3.4375 -0.25,-1.90625 -0.25,-1.90625 0.875,-1.375 0.875,-1.375 z m 18.5312,10.25 c 0.8235,0 11.1601,5.33431 12.4688,6.4375 0.14,0.118 -0.2345,1.65893 -0.8438,3.40625 l -1.125,3.1875 -6.7812,-3.6875 -6.7812,-3.65625 1,-2.84375 0.9687,-2.84375 1.0937,0 z m -20.75,0.15625 5.9688,3.375 6,3.40625 -0.094,1.03125 c -0.055,0.56598 -0.168,1.93125 -0.25,3.03125 l -0.1562,2 -1.0625,0 c -0.5765,0 -3.5015,-1.58183 -6.5,-3.5 l -5.4375,-3.5 0,-1.75 c 0.01,-0.96933 0.3709,-2.29225 0.7812,-2.9375 l 0.75,-1.15625 z M 964.5962,174.5 c 1.443,0.36952 10.9749,5.41019 12.1562,6.46875 0.2115,0.18955 -0.1843,1.70736 -0.875,3.375 -0.6908,1.66763 -1.4216,3.03125 -1.6562,3.03125 -0.2349,0 -2.9487,-1.61052 -6,-3.5625 l -5.5313,-3.5625 0.6875,-2.6875 c 0.3725,-1.4844 0.826,-2.85724 1.0312,-3.0625 0.019,-0.0193 0.091,-0.0246 0.1876,0 z m -16.875,0.875 c 0.6478,0 7.5176,4.50481 10,6.5625 0.1898,0.15737 0.059,1.65443 -0.3126,3.34375 -0.3708,1.68933 -0.9112,3.09375 -1.1874,3.09375 -0.2763,0 -2.5073,-1.63375 -4.9376,-3.625 l -4.4062,-3.625 0,-2.875 0,-2.875 0.8438,0 z m 13.6562,8.9375 5.25,3.5625 5.2812,3.5625 -1.5624,2.96875 c -0.8441,1.63211 -1.8516,2.96975 -2.25,2.96875 -0.3985,-0.001 -2.6186,-1.68899 -4.9376,-3.75 l -4.2187,-3.75 1.2187,-2.78125 1.2188,-2.78125 z m -14,1.03125 4.3438,3.75 4.3437,3.78125 -0.7187,2.75 c -0.3819,1.5125 -0.9927,2.75 -1.375,2.75 -0.3826,0 -2.1708,-1.51998 -3.9688,-3.375 l -3.2812,-3.375 0.3437,-3.125 0.3125,-3.15625 z m 12.0938,10.03125 3.25,3.34375 3.25,3.34375 -1.2188,2.65625 -1.1875,2.65625 -1.0937,-0.0937 c -0.5993,-0.0397 -2.2904,-1.51847 -3.75,-3.28125 l -2.6563,-3.1875 0.5313,-2.71875 0.5,-2.71875 1.1874,0 1.1876,0 z m -10.5,1.5625 2.4062,2.96875 2.4375,2.96875 0.031,1.78125 0.031,1.8125 0.9375,-0.5625 0.9063,-0.5625 2.1874,3.0625 2.1876,3.0625 -1.25,2.9375 -1.2188,2.96875 -0.8438,0 c -0.469,0 -1.5028,-1.30927 -2.3124,-2.875 l -1.5,-2.84375 0.4687,-2.40625 0.4687,-2.375 -0.5937,1.25 -0.5937,1.25 -0.8438,-0.5 -0.8125,-0.5 1.375,5.3125 c 0.7629,2.9217 1.6065,7.02756 1.875,9.125 l 0.5,3.8125 -4.625,5.375 c -2.5369,2.96949 -4.7584,5.24157 -4.9687,5.03125 -0.2104,-0.21031 0.9464,-3.23558 2.5937,-6.71875 l 3,-6.34375 -0.375,-8.5625 -0.3437,-8.53125 -1.1876,-4.375 -1.1562,-4.34375 0.5938,-0.59375 0.625,-0.625 z m 5.9687,34.625 c 0.7006,0.0263 1.0341,0.94454 1.4375,2.78125 l 0.6562,2.96875 -0.6562,1.03125 c -0.3506,0.56733 -1.9122,1.71017 -3.5,2.53125 l -2.9062,1.5 -1,-1.75 -1.0313,-1.75 -0.031,2.21875 -0.031,2.21875 -3.75,1.9375 c -2.0625,1.06168 -3.8845,1.79743 -4.0625,1.625 -0.1781,-0.17243 0.373,-1.71032 1.25,-3.40625 l 1.5937,-3.09375 2.75,-1.71875 c 1.5011,-0.94798 4.0394,-2.96781 5.6563,-4.5 1.849,-1.75214 2.9244,-2.62006 3.625,-2.59375 z m 2.0625,11.75 0.8125,0.53125 c 0.4504,0.27832 1.0388,1.84813 1.2813,3.5 l 0.4374,3 -4.5937,1.40625 c -2.5165,0.7726 -4.9,1.4427 -5.3125,1.5 l -0.75,0.125 0,-3.40625 0,-3.375 4.0625,-1.65625 4.0625,-1.625 z m -11.125,4.71875 0.5625,0.5625 0.5313,0.53125 -0.6563,2.625 -0.6563,2.625 -4.625,1.34375 -4.6562,1.375 -0.3125,-1.3125 c -0.1723,-0.72296 0.1364,-2.15784 0.6875,-3.1875 l 1,-1.875 4.0625,-1.34375 4.0625,-1.34375 z m 14.7812,7.34375 0.4063,3.53125 0.4063,3.53125 -2.0313,0.4375 c -1.1291,0.24493 -3.4125,0.60127 -5.0625,0.8125 -3.9541,0.50619 -5.6275,0.3539 -5.5625,-0.5625 0.029,-0.4125 0.062,-1.84654 0.062,-3.15625 l 0,-2.375 4.4375,-1.125 c 2.4436,-0.61529 5.11,-1.09375 5.9063,-1.09375 l 1.4374,0 z m -15.7812,2.78125 0,3.53125 0,3.5625 -3.25,0.375 c -5.0636,0.6284 -9.75,0.79106 -9.75,0.3125 0,-0.2392 0.3993,-1.54155 0.9062,-2.875 l 0.9376,-2.40625 2.9687,-0.59375 c 1.6289,-0.32577 4.1234,-0.88879 5.5625,-1.25 l 2.625,-0.65625 z m 16.0938,9.15625 0.9374,0.5625 0.9688,0.59375 0,2.875 0,2.875 -2.25,0.4375 c -1.2375,0.23835 -4.6125,0.4876 -7.5,0.5625 l -5.25,0.15625 0,-3.375 0,-3.375 6.5312,-0.65625 6.5626,-0.65625 z m -17.0938,1.78125 0,3.0625 0,3.03125 -1.25,0.5 c -0.6875,0.27741 -4.0833,0.55035 -7.5312,0.59375 l -6.25,0.0937 0.6562,-2.75 c 0.3629,-1.5125 0.7335,-2.85878 0.8125,-2.96875 0.078,-0.10997 3.1496,-0.49652 6.8437,-0.875 l 6.7188,-0.68745 z m 19.5,10.78125 0.3125,3.25 0.3125,3.25 -8.125,0 -8.125,0 0.3125,-3.25 0.3125,-3.25 7.5,0 7.5,0 z m -21.2188,0.0937 c 0.4379,0.0103 0.7324,0.0291 0.8126,0.0625 l 0.5624,0.25 -0.4374,3.03125 -0.4376,3.0625 -7.4062,0 -7.375,0 0,-2.9375 0,-2.90625 7.25,-0.375 c 2.9906,-0.15231 5.7177,-0.21844 7.0312,-0.1875 z m 0.7188,10.4063 0,3.625 0,3.625 -3.75,-0.625 c -2.0625,-0.34091 -5.6625,-0.619 -8,-0.625 l -4.25,0 0,-3 0,-3 8,0 8,0 z m 5.5,0.5 0.75,0.25 c 0.4125,0.1375 3.9,0.25 7.75,0.25 l 7,0 0,3.5 0,3.5 -5.75,-0.0312 c -3.1625,-0.008 -6.7955,-0.28565 -8.0625,-0.625 l -2.2813,-0.625 0.2813,-3.125 0.3125,-3.09375 z m -20.625,8.875 5.8125,0.71875 c 3.1949,0.39864 6.6,0.7661 7.5625,0.8125 l 1.75,0.0937 0,3.28125 0,3.28125 -7.5312,-0.96875 -7.5,-0.9375 -0.5938,-2.28125 -0.5625,-2.28125 0.5313,-0.84375 0.5312,-0.875 z m 19.9688,2.3125 7.3124,0.6875 7.3126,0.65625 0.7812,0.78125 0.7812,0.8125 -0.5937,3 -0.625,3 -7.1563,-1.0625 -7.1562,-1.0625 -0.3125,-3.40625 -0.3437,-3.40625 z m -18.9688,7.71875 c 1.068,0.0902 3.4438,0.41975 6.125,0.84375 l 6.5,1.03125 1.25,0.96875 1.25,0.96875 0,2.40625 0,2.375 -2.25,-0.0937 c -1.2375,-0.0528 -4.4761,-0.61529 -7.1875,-1.25 l -4.9375,-1.15625 -0.7812,-2.96875 c -0.4329,-1.62236 -0.6817,-3.02317 -0.5626,-3.125 0.03,-0.0255 0.2378,-0.0301 0.5938,0 z m 20.25,3.59375 c 0.6241,0 4.0242,0.53552 7.5625,1.1875 l 6.4375,1.15625 -0.5312,2.09375 c -0.305,1.13552 -0.5838,2.625 -0.5938,3.3125 l 0,1.25 -1.3438,0 c -0.7332,0 -3.8832,-0.53032 -7,-1.15625 l -5.6562,-1.125 0,-3.375 0,-3.34375 1.125,0 z m -18.125,6.1875 5.75,1.46875 c 6.5586,1.69423 6.7451,1.86014 7.625,5.59375 l 0.6562,2.75 -1.3437,0 c -2.3186,0 -11.1689,-3.29665 -11.9375,-4.4375 -0.4041,-0.5998 -0.74,-2.03346 -0.75,-3.21875 l 0,-2.15625 z m 17.5,4.8125 c 0.2833,0 3.2083,0.74108 6.5,1.65625 l 6,1.65625 0,1.75 c 0,0.96485 -0.2597,2.47377 -0.5938,3.34375 l -0.625,1.59375 -1.2187,0 c -0.6682,0 -3.302,-0.71705 -5.875,-1.59375 l -4.6875,-1.59375 0,-3.40625 c 0,-1.8733 0.2167,-3.40625 0.5,-3.40625 z m -14.5,5.15625 5.5,2.1875 5.5,2.15625 0,1.65625 c 0,0.91752 0.2597,2.38002 0.5938,3.25 l 0.625,1.59375 -1.1563,0 c -0.6308,0 -2.9268,-0.94002 -5.125,-2.0625 l -4.0313,-2.03125 -0.9374,-2.53125 c -0.528,-1.38832 -0.9688,-2.91129 -0.9688,-3.375 l 0,-0.84375 z m 14,5.625 1.25,0.5 c 0.6875,0.27349 3.2123,1.28735 5.5938,2.25 l 4.3124,1.75 -0.5624,2.09375 c -0.3115,1.1602 -0.5838,2.6875 -0.5938,3.375 l 0,1.25 -1.0312,0 c -0.5719,0 -2.8219,-0.92008 -5,-2.03125 l -3.9688,-2.03125 0,-3.5625 0,-3.59375 z m -9.1875,5.4375 c 1.4015,0.25796 5.5364,2.93114 6.9375,4.625 l 1.25,1.53125 0,2.40625 0,2.40625 -1.5,-0.5625 -1.5,-0.5625 0,0.8125 c 0,0.44749 0.9,1.62951 2,2.625 l 2,1.8125 0,1.34375 0,1.34375 0.9688,0 c 0.5372,0 1.7436,1.13853 2.6562,2.53125 l 1.6562,2.53125 -2.2187,7.46875 -2.2187,7.46875 0.5,1.25 0.5,1.25 0.062,-2.03125 0.094,-2.03125 1.6562,-2.34375 1.625,-2.375 1.3438,2.375 c 0.725,1.30788 1.3238,3.10212 1.3438,3.96875 l 0.0314,1.5625 -2.3125,2.1875 -2.3437,2.1875 -0.6563,-0.65625 -0.6875,-0.6875 0,1.84375 0,1.84375 -2.25,2.40625 -2.25,2.40625 -0.3125,-1.46875 -0.2813,-1.5 1.3126,-3.34375 1.3437,-3.34375 0.3125,-8.71875 0.2812,-8.71875 -2.6874,-6 -2.7188,-6 0.5625,-1.4375 0.5625,-1.4375 -2.0625,-1.84375 c -2.0947,-1.8866 -4.2301,-6.26995 -3.4375,-7.0625 0.072,-0.0722 0.2373,-0.0994 0.4375,-0.0625 z m 9.1875,5.71875 4,2.28125 4,2.28125 -0.031,1.5 c 0,0.825 -0.2621,2.5125 -0.5938,3.75 -0.7676,2.86426 -1.1556,2.82645 -4.5625,-0.4375 L 947.8774,353 l 0,-3.34375 0,-3.34375 z m 10.625,37.0625 1.6875,3.5 1.6563,3.46875 -3.75,2.46875 c -2.0528,1.34446 -4.3106,2.4676 -5.0313,2.5 l -1.3125,0.0625 0.3125,-3.65625 0.3125,-3.625 3.0625,-2.34375 3.0625,-2.375 z m -9.8438,7.75 1.125,0.65625 1.0938,0.6875 0,2.40625 0,2.40625 -3.7188,2.53125 c -2.0527,1.39483 -4.143,2.5625 -4.625,2.5625 l -0.875,0 0.6563,-2.75 0.6875,-2.75 2.8438,-2.875 2.8124,-2.875 z m 14.6876,4.40625 c 0.829,0.99206 2.5312,4.84292 2.5312,5.71875 l 0,1.03125 -4.25,1.96875 c -2.3375,1.07447 -4.9749,1.98495 -5.875,2.03125 l -1.6562,0.0937 -0.4376,-3.09375 -0.4687,-3.0625 4.9375,-2.5 c 2.7148,-1.37567 5.073,-2.36198 5.2188,-2.1875 z m -13,7.03125 c 0.1311,0.16266 0.542,1.54448 0.9062,3.0625 l 0.6562,2.75 -5.25,2.40625 c -2.8993,1.32441 -5.6187,2.4549 -6.0312,2.5 -0.8828,0.0964 -0.9376,-1.58998 -0.1562,-4.5 l 0.5624,-2.09375 4.5313,-2.21875 c 2.5009,-1.21501 4.6501,-2.06891 4.7813,-1.90625 z m 17.5,4.4375 0.5,0.5 c 0.2802,0.28031 0.7833,1.91628 1.125,3.625 l 0.625,3.09375 -6.3438,1.96875 -6.375,2 -0.8438,-0.8125 -0.8124,-0.78125 0.3124,-2.75 0.3438,-2.78125 5.7188,-2.03125 5.75,-2.03125 z m -16.7188,6.4375 c 0.1061,-0.005 0.1918,0.0356 0.2188,0.0625 0.2154,0.21536 0.5395,1.6634 0.7187,3.25 l 0.3125,2.90625 -5,1.78125 c -2.75,0.97917 -5.7875,1.80115 -6.75,1.84375 l -1.75,0.0937 0,-2.90625 0,-2.875 6.0312,-2.25 c 2.9033,-1.08571 5.4758,-1.87297 6.2188,-1.90625 z m 20.5,5.71875 0.5,0.84375 c 0.2656,0.46791 0.7555,2.01768 1.0938,3.4375 l 0.625,2.59375 -6.25,1.5625 c -3.4248,0.86191 -6.8938,1.49245 -7.7188,1.40625 l -1.5,-0.15625 -0.3125,-3.1875 -0.3125,-3.1875 3.875,-1.03125 c 2.1251,-0.57222 5.2467,-1.31808 6.9375,-1.65625 l 3.0625,-0.625 z m -19.5312,4.9375 0.9062,1.375 0.875,1.40625 -0.25,1.96875 -0.25,1.96875 -7,1.65625 c -3.85,0.91087 -7.1125,1.71985 -7.25,1.78125 -0.1375,0.0614 -0.25,-1.40663 -0.25,-3.25 l 0,-3.34375 6.5938,-1.78125 6.625,-1.78125 z m 22.8437,6.53125 0.375,0.625 c 0.2058,0.33761 0.5261,1.975 0.7187,3.625 l 0.3438,3 -5.5,1.15625 c -3.025,0.63447 -6.4777,1.197 -7.6562,1.25 l -2.125,0.0937 -0.625,-1.59375 c -0.334,-0.86988 -0.5938,-2.34088 -0.5938,-3.2812 l 0,-1.71875 7.5312,-1.5625 7.5313,-1.59375 z m -20.8437,4.8125 c 0.1212,0.006 0.1936,0.005 0.2187,0.0312 0.2008,0.20847 0.5279,1.7335 0.7187,3.375 l 0.3438,3 -7,1.125 c -3.85,0.61772 -7.45,1.01132 -8,0.90625 l -1,-0.1875 0,-2.875 0,-2.90625 7.2812,-1.40625 c 3.5073,-0.67445 6.5891,-1.10355 7.4376,-1.0625 z m 22.5312,7.96875 c 0.3968,0.0109 0.6532,0.0522 0.7188,0.125 0.1673,0.18591 0.5943,1.75147 0.9687,3.5 l 0.6875,3.1875 -4.3125,0.5625 c -2.3726,0.30663 -5.4375,0.73005 -6.8125,0.9375 -1.375,0.20745 -3.0125,0.4251 -3.6562,0.5 l -1.1876,0.15625 -0.6874,-3.125 -0.6876,-3.125 1.25,-0.78125 c 1.1524,-0.71216 10.9412,-2.01358 13.7188,-1.9375 z m -19.75,2.6875 0,2.625 c 0,1.44605 0.017,2.99375 0.031,3.40625 l 0.031,0.75 -4.7813,0.59375 c -2.6259,0.33815 -6.1049,0.5632 -7.7187,0.5 l -2.9375,-0.0937 -0.6875,-2.6875 -0.7187,-2.65625 2.125,-0.53125 c 1.1779,-0.28601 4.9687,-0.83904 8.4062,-1.21875 l 6.25,-0.6875 z m 23,9.03125 0,3.53125 0,3.5625 -1.75,0.46875 c -0.9625,0.25153 -4.2874,0.4987 -7.4062,0.5625 l -5.6876,0.125 -0.6874,-3.09375 c -0.3716,-1.68932 -0.5024,-3.19445 -0.3126,-3.375 0.1899,-0.18055 3.8313,-0.66776 8.0938,-1.0625 l 7.75,-0.71875 z m -21.7812,1.96875 0.875,1.375 c 0.4845,0.76547 0.8962,2.13825 0.9062,3.0625 l 0,1.6875 -2.25,0.4375 c -1.2375,0.23835 -4.6301,0.4876 -7.5312,0.5625 l -5.2813,0.15625 -1,-2.65625 c -0.552,-1.45128 -0.7707,-2.85425 -0.5,-3.125 0.2708,-0.27076 3.6985,-0.71906 7.625,-1 l 7.1563,-0.5 z m 22.2812,10.78125 0.3125,3.875 0.3125,3.90625 -6.6875,-0.625 c -3.6914,-0.34471 -6.845,-0.75126 -7,-0.90625 -0.155,-0.15499 -0.4458,-1.63536 -0.625,-3.28125 l -0.3125,-2.96875 7,0 7,0 z m -19.1875,0 0.7813,2 c 0.4292,1.1 0.8047,2.5625 0.8437,3.25 l 0.062,1.25 -6.8438,0 -6.8437,0 -1.1875,-2.65625 c -0.6589,-1.44607 -1.0644,-2.72445 -0.9062,-2.875 0.1581,-0.15055 3.3929,-0.43413 7.1874,-0.625 l 6.9063,-0.34375 z m -9.3125,10 5.75,0.3125 5.75,0.3125 1.25,1.625 c 0.6875,0.88912 1.25,2.48476 1.25,3.53125 l 0,1.90625 -5.25,-0.6875 -5.25,-0.65625 -1.75,-2.03125 c -0.9625,-1.11865 -1.7492,-2.56094 -1.75,-3.1875 l 0,-1.125 z m 15.9375,1.375 6.2813,0.3125 6.2812,0.3125 0.3125,3.875 0.3125,3.875 -5.3125,-0.6875 c -6.0022,-0.78951 -6.3031,-0.99417 -7.2187,-4.875 l -0.6563,-2.8125 z m -9.2813,8.59375 c 0.877,0.0302 2.6886,0.32383 4.6876,0.78125 l 4.8437,1.125 0.9063,2.375 c 0.4963,1.30591 0.9062,2.82374 0.9062,3.375 l 0,1 -2.25,-0.71875 c -1.2375,-0.38551 -3.2288,-1.04799 -4.4375,-1.5 l -2.2187,-0.84375 -1.6876,-2.5625 c -0.9281,-1.41672 -1.494,-2.75594 -1.2812,-2.96875 0.053,-0.0532 0.2389,-0.0726 0.5312,-0.0625 z m 13.1876,2.8125 c 0.8737,0.007 2.6248,0.3012 4.5312,0.78125 l 4.625,1.15625 0,3.375 0,3.40625 -1.3438,0 c -0.7427,0 -2.7399,-0.50198 -4.4374,-1.09375 l -3.0938,-1.0625 -0.6562,-3 c -0.3619,-1.64756 -0.4479,-3.20832 -0.1876,-3.46875 0.065,-0.0651 0.2712,-0.0962 0.5626,-0.0937 z m -6.4376,6.78125 c 0.7409,-0.007 2.2893,0.67731 4.5938,2.125 1.925,1.20929 3.725,2.2175 4,2.25 0.275,0.0325 1.9625,0.68964 3.75,1.4375 l 3.25,1.34375 0,3.875 0,3.90625 -0.6875,0 c -0.3824,0 -2.0111,-1.2375 -3.625,-2.75 l -2.9375,-2.75 1.25,2.4375 c 0.696,1.34092 3.2247,4.52764 5.625,7.09375 l 4.375,4.65625 0,1.40625 c 0,0.76797 -0.6308,2.57384 -1.375,4 -0.7442,1.42617 -1.6539,4.23867 -2.0312,6.25 l -0.6876,3.65625 -0.8124,0 -0.8438,0 -0.4375,-8.3125 -0.4375,-8.28125 -3.1875,-5.875 c -1.7547,-3.23979 -3.1875,-6.21836 -3.1875,-6.59375 0,-0.3754 -1.575,-2.33391 -3.5,-4.375 -3.3382,-3.53951 -4.3285,-5.4878 -3.0938,-5.5 z m 22.6563,28.78125 1.2187,0.40625 c 0.6713,0.22195 1.8507,1.5331 2.625,2.90625 l 1.4063,2.5 -2.3437,3.15625 c -2.8794,3.89446 -3.5155,3.93985 -5.375,0.34375 l -1.4688,-2.84375 1.9688,-3.21875 1.9687,-3.25 z m 8.9375,8.90625 1.9688,2.375 c 2.6853,3.22374 2.5893,3.7146 -1.6563,8.0625 -2.0367,2.08569 -4.0346,3.8125 -4.4063,3.8125 -0.3715,0 -1.2021,-1.34474 -1.875,-2.96875 l -1.25,-2.9375 2.0626,-2.90625 c 1.1302,-1.58734 2.7461,-3.45283 3.5937,-4.15625 l 1.5625,-1.28125 z m -12.6562,0.75 0.9062,2.71875 0.9062,2.71875 -2.8124,3.6875 -2.8126,3.6875 -0.9062,-3.09375 -0.875,-3.125 1.875,-3.1875 c 1.0325,-1.76465 2.2771,-3.2564 2.7812,-3.3125 l 0.9376,-0.0937 z m 20.6874,9.3125 1.9688,2.34375 c 1.0696,1.28354 1.9163,2.79375 1.9062,3.34375 -0.01,0.55 -2.1003,2.64721 -4.6874,4.6875 -2.5872,2.04029 -5.0377,3.7278 -5.4376,3.75 -0.3998,0.0222 -1.4919,-1.10454 -2.4062,-2.5 l -1.6562,-2.53125 2.4062,-2.5625 c 1.3142,-1.40831 3.6318,-3.43899 5.1562,-4.53125 l 2.75,-2 z m -18.7812,1.09375 1.0625,0.34375 1.0625,0.375 0.9062,2.71875 0.9063,2.71875 -4.3437,3.84375 -4.3438,3.875 -0.7812,-2.9375 -0.8126,-2.96875 3.1563,-3.96875 3.1875,-4 z m 25.875,8.9375 1.5,1.25 c 0.8238,0.68368 1.9122,2.01849 2.4375,3 l 0.9687,1.8125 -5.7812,3.96875 c -3.1679,2.19835 -6.1356,4.0346 -6.625,4.0625 -1.103,0.0628 -3.5506,-3.06435 -3.5938,-4.59375 l -0.031,-1.125 5.5625,-4.1875 5.5625,-4.1875 z m -20.2188,1.03125 1.5938,3.125 1.625,3.09375 -2.8125,2.21875 c -1.5333,1.20392 -3.8954,3.18613 -5.2813,4.40625 -2.8773,2.53352 -4.0112,2.82378 -4.0312,1.03125 -0.01,-0.6875 -0.2845,-2.19232 -0.5938,-3.34375 l -0.5624,-2.09375 5.0312,-4.21875 5.0312,-4.21875 z m 28.25,8.78125 0.9688,1.40625 c 0.522,0.78235 1.3868,2.22538 1.9375,3.1875 l 1,1.75 -6.1875,4 c -3.4044,2.20038 -6.6146,4 -7.1562,4 -1.1973,0 -3.6436,-3.09104 -3.6876,-4.65625 l -0.031,-1.125 6.5938,-4.28125 6.5624,-4.28125 z m -23.7187,2.34375 c 0.2845,0 1.1822,1.29345 2,2.875 l 1.5,2.875 -5.7187,4.0625 c -3.1413,2.24679 -6.2204,4.1033 -6.8438,4.125 l -1.1562,0.0625 -0.5938,-2.25 c -0.3317,-1.2375 -0.615,-2.55983 -0.625,-2.90625 -0.015,-0.66954 10.5612,-8.84375 11.4375,-8.84375 z m 30.4063,8.09375 1.5937,2.40625 c 0.8673,1.32378 1.5625,2.84987 1.5625,3.375 l 0,0.9375 -5.75,3.5625 c -3.1625,1.9545 -6.2507,3.57905 -6.875,3.59375 l -1.1562,0.0312 -1.6876,-2.59375 c -0.932,-1.42272 -1.5563,-2.71275 -1.375,-2.875 0.1814,-0.16225 3.3611,-2.14183 7.0313,-4.375 l 6.6563,-4.0625 z m -24.6563,1.90625 c 0.3074,0 1.1496,1.40497 1.875,3.15625 l 1.3437,3.1875 -1,0.34375 c -0.5412,0.18043 -3.2077,1.862 -5.9374,3.75 -2.7301,1.888 -5.5194,3.4697 -6.1876,3.5 l -1.2187,0.0625 -1.0313,-1.9375 c -0.5693,-1.06384 -1.0312,-2.38469 -1.0312,-2.90625 l 0,-0.9375 6.3125,-4.125 c 3.4759,-2.2646 6.5676,-4.09375 6.875,-4.09375 z m 31.1875,9 c 0.6777,0 3.8981,6.05984 3.4375,6.46875 -0.178,0.15809 -3.0125,1.6544 -6.3125,3.34375 -3.3,1.68936 -6.3062,3.0985 -6.6875,3.125 -0.7714,0.0535 -3.8125,-4.00905 -3.8125,-5.09375 0,-0.66832 12.2373,-7.84375 13.375,-7.84375 z m -25.2812,0.71875 1.4374,1.875 1.4376,1.90625 -0.25,1.4375 -0.2188,1.4375 -6.4688,3.75 -6.5,3.75 -0.7812,-1.1875 c -0.4434,-0.65515 -1.245,-1.97111 -1.7812,-2.90625 l -1,-1.6875 7.0624,-4.1875 7.0626,-4.1875 z m 6.7812,9.28125 2.0938,2.96875 2.125,2.9375 -6.8126,3.5 c -3.7361,1.91742 -6.9559,3.50415 -7.1874,3.53125 -0.8904,0.10393 -4.0786,-3.30246 -4.0626,-4.34375 l 0,-1.09375 6.9376,-3.75 6.9062,-3.75 z m 24.4688,0.8125 1.8124,2.34375 c 0.9903,1.28724 1.8025,2.79375 1.8126,3.34375 l 0,1 -6.2188,2.6875 c -3.4309,1.49201 -6.2785,2.7295 -6.3125,2.75 -0.034,0.0205 -1.0776,-1.32976 -2.3125,-3 l -2.25,-3.03125 6.75,-3.03125 6.7188,-3.0625 z m -17.5938,8.28125 2.2812,2.4375 2.3126,2.4375 -0.625,0.625 c -0.345,0.34507 -2.8012,1.67378 -5.4376,2.9375 -2.6363,1.26372 -5.4562,2.31255 -6.2812,2.34375 l -1.5,0.0625 -2.4375,-1.875 -2.4375,-1.875 7.0625,-3.53125 7.0625,-3.5625 z m 23.5,2.5625 1.8438,2.40625 c 1.021,1.3284 1.8629,2.90906 1.875,3.5 l 0.031,1.0625 -4.75,1.59375 c -2.6125,0.86897 -5.2507,1.6349 -5.875,1.6875 l -1.1562,0.0937 -1.5938,-2.46875 c -0.8882,-1.3556 -1.625,-2.67578 -1.625,-2.90625 0,-0.23048 2.5335,-1.43272 5.625,-2.6875 l 5.625,-2.28125 z m -15,6.125 2.0938,2.09375 2.0937,2.09375 -1.0313,1 c -0.5603,0.56043 -3.0255,1.67119 -5.4687,2.4375 -2.4431,0.7663 -4.6786,1.41435 -4.9687,1.46875 -0.8959,0.16793 -4.9688,-2.95559 -4.9688,-3.8125 l 0,-0.8125 6.125,-2.21875 6.125,-2.25 z m 21.6875,5.21875 1.5313,2.9375 c 2.0345,3.93434 2.0719,3.86368 -2.2188,4.3125 -2.0625,0.21575 -4.2899,0.47 -4.9375,0.5625 l -1.1563,0.1875 -2.1874,-2.75 -2.1563,-2.75 3.8437,-1.1875 c 2.115,-0.64523 4.6141,-1.2077 5.5626,-1.25 l 1.7187,-0.0625 z m -13.625,2.9375 2.4063,2.25 2.375,2.25 -1.7813,0.6875 c -0.9892,0.39039 -3.5264,0.74265 -5.625,0.78125 l -3.8125,0.0937 -1.9375,-1.0625 c -1.0639,-0.5691 -1.9375,-1.37626 -1.9375,-1.81245 l 0,-0.78125 5.1562,-1.21875 5.1563,-1.1875 z m 0.6875,6.8125 3.75,0.75 c 2.0625,0.4009 6.2853,0.67295 9.375,0.59375 l 5.625,-0.15625 1.625,2.5 c 0.8978,1.37016 1.625,2.9968 1.625,3.625 l 0,1.125 -1.5625,-0.59375 -1.5313,-0.59375 0.5938,1 c 0.3342,0.54074 1.4744,1.43432 2.5312,2 l 1.9376,1.03125 -0.6563,-1.625 -0.625,-1.65625 2.4063,0.6875 c 1.3207,0.38211 3.1694,0.93121 4.0937,1.1875 l 1.6875,0.4375 0.7812,3.21875 c 0.4352,1.76257 0.8393,3.66875 0.9063,4.21875 0.067,0.55 0.6498,2.2445 1.2813,3.78125 0.6314,1.53676 1.411,3.89926 1.75,5.25 l 0.625,2.46875 -0.5626,0 c -0.3141,0 -2.3834,-2.68266 -4.5937,-5.9375 l -4.0313,-5.90625 -4.25,-3.46875 c -5.5261,-4.4676 -11.6311,-8.22641 -14.7812,-9.125 -1.375,-0.39222 -3.7375,-1.17015 -5.25,-1.75 l -2.75,-1.0625 0,-1 0,-1 z m 35.5,11.75 3,0.34375 c 1.65,0.19282 3.3375,0.56036 3.75,0.8125 l 0.75,0.4375 0,5.4375 c 0,2.99254 -0.1884,5.46875 -0.4375,5.46875 -0.2492,0 -1.6097,-0.52278 -3,-1.15625 l -2.5313,-1.15625 -0.4687,-1.59375 c -0.2533,-0.87903 -0.5802,-3.16875 -0.75,-5.09375 l -0.3125,-3.5 z m 12.75,2.5 2.625,0.59375 c 1.4449,0.31446 3.1658,0.72936 3.8438,0.9375 l 1.25,0.375 -0.4376,2.78125 c -0.2424,1.53343 -0.7083,4.5 -1.0312,6.5625 l -0.5938,3.75 -1.3437,0 c -0.7392,0 -2.264,-0.7875 -3.375,-1.75 l -2,-1.75 0.5313,-5.75 0.5312,-5.75 z m 12.3438,3.5 2.9374,0.3125 c 1.6258,0.17483 3.3658,0.68806 3.8438,1.15625 l 0.875,0.84375 -1.2188,5.34375 c -0.6633,2.93197 -1.4235,6.13125 -1.6874,7.09375 -0.5809,2.11715 -0.7274,2.10287 -4.25,0.28125 l -2.7813,-1.4375 1.125,-6.8125 1.1563,-6.78125 z m 12.6562,2.5 2.625,0.625 c 1.4471,0.34008 3.0448,0.99456 3.5625,1.46875 l 0.9375,0.875 -1.3125,5.25 c -0.7316,2.8923 -1.7275,6.29375 -2.1875,7.53125 -0.9708,2.61132 -0.9625,2.58888 -4.3125,1.0625 l -2.5625,-1.15625 0,-1.375 c 0,-0.76118 0.7346,-4.2679 1.625,-7.8125 l 1.625,-6.46875 z m -35.1875,4 c 0.7162,0 2.3521,0.96038 3.625,2.15625 l 2.3125,2.1875 0,4.15625 0,4.15625 -0.75,0.75 -0.7188,0.71875 -2.25,-2.8125 -2.2812,-2.8125 0,-2 c -0.01,-1.1 -0.2933,-3.0125 -0.625,-4.25 l -0.5938,-2.25 1.2813,0 z m 9.625,6.0625 c 0.4046,-0.0199 1.5631,0.51434 2.7813,1.3125 l 2.5312,1.65625 0,3.34375 c 0,1.84357 -0.2813,4.78125 -0.625,6.5 l -0.625,3.125 -0.7188,0 c -0.396,0 -1.5771,-0.96662 -2.625,-2.125 l -1.9062,-2.09375 0.3438,-5.65625 c 0.1925,-3.10412 0.5159,-5.81925 0.7187,-6.03125 0.025,-0.0265 0.067,-0.0285 0.125,-0.0312 z m 10.3125,6 c 0.5668,0.0534 1.718,0.38818 2.9688,0.90625 l 3.0312,1.25 0,1.125 c 0,0.62077 -0.4127,2.73125 -0.9062,4.65625 -0.4936,1.925 -1.1924,4.7375 -1.5313,6.25 l 0.031,0 -0.625,2.75 -0.875,0 c -0.4786,0 -1.8053,-0.7875 -2.9688,-1.75 l -2.125,-1.75 1.1875,-6.5 c 0.649,-3.575 1.3079,-6.69472 1.4687,-6.90625 0.04,-0.0529 0.1549,-0.0492 0.3438,-0.0312 z m 153.0938,1.9375 c -0.7149,0.004 -1.5139,0.1116 -2.25,0.28125 0.7361,-0.16965 1.5351,-0.27725 2.25,-0.28125 z m -142.1563,2.71875 3.0937,1.28125 3.0626,1.28125 -0.5626,1.5 c -0.3186,0.83026 -1.3106,4.35262 -2.1874,7.84375 -0.877,3.49114 -1.7241,6.375 -1.9063,6.375 -0.1823,0 -1.5055,-0.54921 -2.9063,-1.1875 l -2.5312,-1.15625 0.031,-1.59375 c 0.05,-2.22301 2.7257,-13.16303 3.375,-13.8125 l 0.5313,-0.53125 z m 222.875,3.3125 c 1.2275,-0.0457 8.1875,3.12568 8.1875,3.8125 0,0.31167 -2.3625,2.97843 -5.25,5.90625 l -5.25,5.3125 -2.5,-0.59375 c -1.375,-0.33694 -2.9088,-1.01395 -3.4062,-1.5 l -0.9063,-0.875 4.3125,-5.8125 c 2.3733,-3.18752 4.4752,-5.96394 4.6562,-6.1875 0.027,-0.0335 0.075,-0.0594 0.1563,-0.0625 z m 506.8437,2.96875 c 0.4539,0 9.4252,19.23775 9.0938,19.5 -0.1412,0.11165 -1.6,0.69304 -3.25,1.28125 -1.65,0.5882 -3.6027,0.97541 -4.3438,0.875 l -1.3437,-0.15625 -3.4063,-8.46875 c -1.8713,-4.64367 -3.4062,-8.95998 -3.4062,-9.625 l 0,-1.21875 3.1562,-1.09375 c 1.7322,-0.60381 3.3115,-1.09375 3.5,-1.09375 z m -493.6562,3.84375 1.75,0.59375 c 0.9623,0.32745 2.875,1.55445 4.25,2.71875 l 2.5,2.125 -1,0.375 c -0.55,0.20001 -3.25,1.66372 -6,3.28125 l -5,2.9375 -2.0625,0.0625 -2.0625,0.0625 -1.9375,-1.4375 -1.9375,-1.4375 1,-0.875 c 0.55,-0.47704 3.1373,-2.55301 5.75,-4.625 l 4.75,-3.78125 z m 481.375,1.15625 c 0.2569,0 1.9042,4.303 3.6562,9.5625 l 3.1876,9.5625 -0.6876,0.6875 c -0.3713,0.37776 -2.0956,1.19164 -3.8437,1.8125 l -3.1875,1.125 -0.5625,-0.625 c -0.3159,-0.34586 -1.4099,-4.225 -2.4063,-8.625 -0.9963,-4.4 -2.0053,-8.53717 -2.25,-9.1875 l -0.4374,-1.1875 3.0312,-1.5625 c 1.6672,-0.86217 3.243,-1.5625 3.5,-1.5625 z m -9.9688,6.15625 c 0.053,0.003 0.1069,0.0116 0.125,0.0312 0.4127,0.44594 2.4688,14.4335 2.4688,16.78125 l 0,2.09375 -2.25,0.90625 c -1.2375,0.49741 -3.0375,0.93385 -4,0.96875 l -1.75,0.0625 0,-9.34375 0,-9.34375 2.625,-1.1875 c 1.2653,-0.57651 2.4142,-0.98723 2.7812,-0.96875 z m -459.0312,1.75 3,3 3.0312,3.03125 -0.5312,0.5 c -0.2902,0.29011 -3.4369,1.16521 -6.9688,1.9375 -3.5315,0.7723 -6.6796,1.4448 -7.0312,1.5 -0.3516,0.0552 -1.7016,-0.75154 -3,-1.8125 l -2.375,-1.9375 1,-0.90625 c 0.55,-0.49706 3.6697,-1.88018 6.9375,-3.09375 l 5.9375,-2.21875 z m -38.0938,0.9375 2.5938,0.65625 c 1.4343,0.35999 2.8178,0.84908 3.0625,1.09375 0.2446,0.24468 -2.2174,3.12063 -5.4687,6.40625 l -5.9063,6 -1.7813,0 c -0.9796,0 -1.7812,-0.2798 -1.7812,-0.59375 0,-0.31394 2.0729,-3.48615 4.625,-7.0625 l 4.6562,-6.5 z m 10.2188,2.375 2.25,0.84375 c 3.1218,1.17729 2.8113,2.29839 -1.2188,4.46875 -4.8045,2.58741 -3.8784,2.76617 2.25,0.4375 l 5.1876,-1.96875 2.5,1.15625 c 3.5305,1.60861 3.1738,2.37511 -1.7188,3.625 l -4.25,1.09375 6.0312,-0.53125 6.0313,-0.5 1.9375,2.125 1.9062,2.125 -1.4374,0.9375 -1.4688,0.9375 2.625,0 2.5938,0.0312 3.7812,3 c 4.136,3.28691 5.4317,3.83412 3.4688,1.46875 l -1.25,-1.53125 0.5312,-0.53125 0.5,-0.5 6.3438,1.4375 6.3124,1.46875 1.125,1.5625 1.1563,1.5625 3.9063,1.28125 3.875,1.28125 1.8437,6.84375 c 1.0063,3.76466 1.6104,7.04583 1.3437,7.3125 -0.2664,0.26667 -1.462,-0.0171 -2.6562,-0.65625 -3.7871,-2.02679 -3.2749,-0.35318 0.7812,2.5625 l 3.9063,2.8125 1.6563,6.21875 c 0.911,3.41887 1.6562,6.71528 1.6562,7.3125 0,2.05284 -0.9621,1.08559 -3.125,-3.15625 -3.7878,-7.42847 -19.8272,-27.75 -21.9062,-27.75 -0.3506,0 -4.3932,-2.25 -8.9688,-5 -4.5756,-2.75 -8.8165,-5 -9.4375,-5 -0.6209,0 -2.8329,-0.88041 -4.9063,-1.9375 -2.0733,-1.05708 -5.5508,-2.22749 -7.7187,-2.59375 l -3.9375,-0.65625 0,-0.84375 0,-0.84375 -3.5,0.5625 -3.5,0.5625 0,-1.03125 0,-1.0625 -2.9688,1.125 -2.9687,1.125 -0.6875,-0.6875 -0.6875,-0.71875 2.8437,-2.25 c 1.5613,-1.2452 4.4461,-3.45935 6.4063,-4.90625 l 3.5625,-2.625 z m 477,0.5625 0.3438,2.84375 c 0.1868,1.56567 0.052,5.65517 -0.3126,9.0625 l -0.6874,6.1875 -2.6563,0.96875 c -1.4722,0.53897 -3.25,1.0191 -3.9375,1.0625 l -1.25,0.0937 0,-0.875 c 0,-0.48254 0.7384,-4.10525 1.625,-8.03125 l 1.5938,-7.125 2.6562,-2.09375 2.625,-2.09375 z m -439.5938,7.09375 1.5313,3 c 0.8548,1.65305 1.5625,3.48038 1.5625,4.0625 l 0,1.0625 -5.75,-0.5625 c -3.1625,-0.31458 -6.65,-0.74894 -7.75,-0.96875 l -2,-0.40625 -1.3125,-2.125 c -0.7256,-1.17398 -1.1756,-2.25641 -1,-2.40625 0.1756,-0.14984 3.5423,-0.59178 7.5,-0.96875 l 7.2187,-0.6875 z m 429.0626,0.75 0.7187,0.71875 0.6875,0.6875 -2.2188,6.90625 -2.2187,6.90625 -2.7187,1 c -1.4936,0.54608 -3.2813,1.0191 -3.9688,1.0625 l -1.25,0.0937 0,-1.03125 c 0,-0.56829 1.0826,-3.15579 2.4062,-5.75 l 2.4063,-4.71875 3.0937,-2.9375 3.0626,-2.9375 z m 55.125,1.4375 4.4687,9.1875 4.4687,9.15625 -0.3124,0.96875 c -0.1786,0.5358 -1.8895,1.52884 -3.7813,2.21875 -1.8918,0.68992 -4.089,1.19579 -4.875,1.09375 l -1.4063,-0.1875 -3.8437,-9.4375 c -2.1015,-5.18544 -3.8125,-9.53091 -3.8125,-9.65625 0,-0.12534 2.0578,-0.92784 4.5625,-1.78125 l 4.5313,-1.5625 z m -15.3438,5.71875 3.125,9.28125 3.0938,9.28125 -0.5626,0.5625 c -0.3105,0.31064 -2.4231,1.06782 -4.7187,1.6875 -2.2957,0.61968 -4.4884,1.1782 -4.875,1.25 l -0.7187,0.15625 -1.0313,-3.75 c -0.5724,-2.0625 -1.5562,-6.36788 -2.1875,-9.5625 l -1.1562,-5.8125 0.9687,-0.96875 c 0.5379,-0.53785 2.5855,-1.24678 4.5313,-1.5625 l 3.5312,-0.5625 z m -50.7812,1.8125 0.6562,0.6875 0.6875,0.6875 -3.4063,5.03125 -3.4062,5.03125 -3.3438,1.21875 -3.375,1.21875 2.0938,0.5 2.0938,0.53125 -3.7188,5.3125 -3.7188,5.34375 -5.0312,-0.3125 -5,-0.28125 -2.0625,1.15625 -2.0625,1.125 -4.4375,-0.5 c -2.4446,-0.28231 -5.1125,-0.77692 -5.9375,-1.09375 -0.825,-0.31683 -4.425,-0.69576 -8,-0.84375 l -6.5,-0.28125 1.25,0.53125 c 0.6875,0.28094 1.25,0.87784 1.25,1.34375 l 0,0.84375 -2.25,0.4375 c -1.2375,0.23835 -3.2756,0.4876 -4.5312,0.5625 l -2.2813,0.15625 -4.9063,-2.5 c -2.6927,-1.36455 -5.1849,-2.93955 -5.5312,-3.5 l -0.625,-1 3.9375,0 3.9375,0 4.2812,1.5 4.2813,1.5 0.5,-0.5 0.5313,-0.5 -1.4376,-0.15625 c -2.6996,-0.25462 8.6194,-1.68325 14.0938,-1.78125 l 5.5,-0.0937 4.7812,-1.4375 c 2.6229,-0.79582 8.6977,-3.57858 13.5,-6.15625 l 8.7188,-4.6875 4.7188,-4.53125 4.75,-4.5625 z m 34.5312,2.46875 0.5938,0.71875 c 0.3367,0.38812 1.1504,4.5106 1.7812,9.15625 l 1.125,8.4375 -0.75,0.75 c -0.4144,0.40264 -2.325,0.8988 -4.25,1.125 -1.925,0.22619 -4.0094,0.4745 -4.625,0.5625 l -1.125,0.1875 -0.5938,-3.75 c -0.3408,-2.0625 -0.6462,-6.31065 -0.6562,-9.40625 l 0,-5.625 4.25,-1.0625 4.25,-1.09375 z m -14.1562,4.4375 -0.1876,6 c -0.1124,3.3 -0.4796,7.2375 -0.7812,8.75 l -0.5312,2.75 -5.2813,0 -5.2813,0 1.5,-7.5625 1.5,-7.53125 1.6876,-0.90625 c 0.913,-0.48868 2.9232,-1.01254 4.5,-1.1875 l 2.875,-0.3125 z m -433.3126,1.4375 0.5626,1.4375 c 0.3052,0.7952 1.1862,1.69973 1.9687,2 l 1.4375,0.5625 0,-0.9375 c 0,-0.51339 -0.881,-1.41792 -1.9688,-2 l -2,-1.0625 z m 16.5,1.0625 c 0.4121,0 2.4675,0.51919 4.5938,1.15625 l 3.875,1.15625 0,8.34375 0,8.34375 -0.5625,0 c -0.3023,0 -1.8167,-0.66295 -3.375,-1.46875 l -2.8437,-1.46875 -0.5313,-2.28125 c -0.2987,-1.2567 -0.8397,-4.86875 -1.2187,-8.03125 l -0.6876,-5.75 0.75,0 z m 401.5626,0.75 0.5624,0.5625 0.5626,0.53125 -1.75,5.34375 c -0.9545,2.92313 -2.129,6.1 -2.625,7.0625 l -0.9063,1.75 -4.4687,0 -4.4688,0 0.031,-1.75 c 0.013,-0.9625 1.2503,-3.98618 2.75,-6.71875 l 2.7188,-4.96875 3.8125,-0.90625 3.7813,-0.90625 z m -387.4376,3.375 c 0.5224,-0.0272 2.3201,0.36245 4.3438,0.96875 l 4.2188,1.28125 -0.6563,6.0625 c -0.3563,3.33271 -0.9047,7.525 -1.2187,9.3125 -0.3143,1.7875 -0.6971,3.25 -0.8438,3.25 -0.1466,0 -1.7922,-0.64559 -3.6875,-1.4375 l -3.4687,-1.46875 0.4374,-8.78125 c 0.2444,-4.84559 0.5946,-8.98063 0.75,-9.15625 0.02,-0.0219 0.05,-0.0275 0.125,-0.0312 z m 363.4688,4.03125 -2.0938,0.53125 c -1.1398,0.29812 -2.2948,0.92264 -2.5937,1.40625 l -0.5625,0.90625 1.4375,0 1.4375,0 1.1875,-1.4375 1.1875,-1.40625 z m -348.0938,0.90625 c 1.906,0.0567 7.9688,1.90006 7.9688,2.5625 0,0.6559 -3.9083,16.36775 -4.5,18.09375 l -0.4062,1.21875 -3.3126,-1.40625 -3.2812,-1.375 -0.3125,-1.59375 c -0.3411,-1.67617 2.4947,-16.58842 3.3125,-17.40625 0.073,-0.0733 0.259,-0.1019 0.5312,-0.0937 z m 274.4688,2.75 5.6875,6.34375 5.7187,6.3125 -0.7187,0.65625 c -0.3861,0.36023 -1.5875,0.89167 -2.6875,1.15625 -1.1,0.26459 -2.7564,0.52995 -3.6875,0.59375 l -1.6875,0.125 -5.6875,-7.25 -5.6875,-7.25 4.375,-0.34375 4.375,-0.34375 z m 14.375,0.1875 5.5312,3.75 5.5313,3.75 0.031,1.15625 0.031,1.1875 -2.25,0.4375 c -1.2374,0.23835 -3.15,0.46965 -4.25,0.53125 l -2,0.125 -6,-5.4375 -6,-5.4375 4.6875,-0.0312 4.6875,-0.0312 z m -32.0625,0 3.6875,0.0312 4.75,7.5625 c 2.6125,4.15349 4.75,7.94387 4.75,8.4375 l 0,0.90625 -3.25,0.9375 c -1.7875,0.51342 -3.6592,0.83214 -4.1562,0.71875 -0.4972,-0.11338 -3.0351,-3.99154 -5.6563,-8.625 l -4.7813,-8.4375 0.4688,-0.78125 0.5,-0.75 3.6875,0 z m -10.7187,1.09375 c 0.2144,0.003 0.3387,0.0506 0.375,0.0937 0.6821,0.81396 8.5312,18.179 8.5312,18.875 l 0,0.78125 -2.25,0.4375 c -1.2375,0.23835 -3.2128,0.4876 -4.375,0.5625 l -2.0938,0.15625 -3.6562,-8.75 c -2.0085,-4.8125 -3.635,-9.27996 -3.625,-9.90625 l 0,-1.125 3.5938,-0.6875 c 1.4858,-0.27877 2.8566,-0.44733 3.5,-0.4375 z m -230.3126,0.78125 3.5313,1.46875 3.5625,1.5 -3.1562,9.59375 -3.1563,9.59375 -1.375,-0.53125 c -0.7525,-0.28874 -2.4573,-0.79272 -3.7813,-1.125 l -2.4062,-0.59375 0,-1.53125 c 0,-0.83671 0.9858,-5.11504 2.1875,-9.5 l 2.1875,-7.96875 1.1875,-0.46875 1.2187,-0.4375 z m 216.1876,1.1875 1.375,2.71875 c 1.5694,3.1072 6.1352,16.20018 6.1562,17.6875 l 0,1 -3,0.65625 c -1.65,0.35853 -3.6498,0.5785 -4.4375,0.5 l -1.4375,-0.125 -3.1875,-10.28125 -3.2187,-10.25 2.6562,-0.5625 c 1.4486,-0.31537 3.1918,-0.75862 3.875,-0.96875 l 1.2188,-0.375 z m 87.75,2.6875 5.625,1.65625 5.6562,1.625 -0.031,1.21875 0,1.25 -3.2188,2.25 c -1.7703,1.2375 -3.5641,2.25 -4,2.25 -0.436,0 -3.5072,-1.36273 -6.8125,-3.03125 l -6,-3.0625 0.5625,-0.9375 c 0.3191,-0.51631 2.3107,-1.43466 4.4062,-2.0625 l 3.8126,-1.15625 z m -102.25,1.3125 c 0.2561,-0.004 0.4771,0.0126 0.6562,0.0312 0.2388,0.0249 0.4011,0.0887 0.4688,0.15625 0.5253,0.52534 5.4062,18.33103 5.4062,19.71875 l 0,0.8125 -3.75,1 c -2.0625,0.54779 -4.0666,1.03685 -4.4688,1.09375 l -0.75,0.125 -0.5,-2.25 c -0.2759,-1.2375 -1.1654,-5.31587 -2,-9.0625 -0.8343,-3.74663 -1.5312,-7.6778 -1.5312,-8.71875 l 0,-1.90625 3.5312,-0.65625 c 1.0974,-0.20584 2.169,-0.33069 2.9376,-0.34375 z M 1445.5649,738.5 c 0.4907,-0.0302 2.2469,0.34672 4.2187,0.9375 l 4.0938,1.25 0,1.03125 c 0,0.57276 -1.412,4.81567 -3.1562,9.4375 l -3.1876,8.40625 -3.5,-0.5625 c -1.9205,-0.31168 -3.8234,-0.91128 -4.25,-1.34375 l -0.7812,-0.78125 3.0938,-9 c 1.7084,-4.95 3.2142,-9.16813 3.3437,-9.34375 0.016,-0.0219 0.055,-0.027 0.125,-0.0312 z m -54.8125,1.65625 3.0625,2.15625 3.0625,2.1875 0,7.9375 0,7.9375 -0.75,-0.0312 c -0.4125,-0.0173 -1.4839,-1.05223 -2.375,-2.28125 l -1.625,-2.21875 -1.2188,-7.3125 -1.2187,-7.3125 0.5313,-0.53125 0.5312,-0.53125 z m 230.2188,1.28125 0.4062,1.21875 c 0.2301,0.66757 1.141,5.18539 2.0312,10.0625 l 1.625,8.875 -0.8124,0.78125 c -0.458,0.432 -1.7438,1.01667 -2.8438,1.28125 -1.1,0.26459 -2.7666,0.52995 -3.7188,0.59375 l -1.75,0.125 -0.4687,-2.25 c -0.2653,-1.2375 -0.9733,-5.60909 -1.5625,-9.6875 l -1.0625,-7.40625 0.7813,-0.6875 c 0.4314,-0.38402 2.25,-1.20736 4.0624,-1.8125 l 3.3126,-1.09375 z m 100.7187,1.09375 6.0625,4.15625 6.0625,4.1875 0.031,1 0,1 -3.7188,2.1875 c -2.0572,1.21316 -4.1171,2.2257 -4.5625,2.25 -0.4454,0.0244 -3.2745,-2.28138 -6.2813,-5.125 l -5.4687,-5.15625 0.3437,-1 0.3438,-1 3.5938,-1.25 3.5937,-1.25 z m -261.5313,0.96875 4.125,1.59375 c 2.2571,0.87774 4.2073,1.657 4.3438,1.75 0.1366,0.093 -0.9378,3.06368 -2.375,6.59375 -1.4372,3.53008 -3.0126,7.47557 -3.5,8.75 l -0.875,2.3125 -1.75,-0.5 c -0.962,-0.26829 -2.7625,-0.7693 -4,-1.125 l -2.25,-0.65625 0,-1.0625 c 0,-0.5953 1.4256,-4.81906 3.1562,-9.375 l 3.125,-8.28125 z m 146.5,3.875 0.5626,4.25 c 0.3086,2.3375 0.8381,6.56297 1.1874,9.40625 l 0.625,5.15625 -2.3124,0.46875 c -1.283,0.24433 -3.5813,0.4876 -5.0938,0.5625 l -2.75,0.15625 0,-2.875 c 0,-1.56932 -0.2798,-5.54132 -0.625,-8.84375 l -0.625,-6 3.2812,-1.15625 c 1.8024,-0.62826 3.8197,-1.125 4.5,-1.125 l 1.25,0 z m -205.5312,0 c 0.6875,0.0122 2.3189,0.83933 3.625,1.84375 l 2.375,1.84375 -1.2188,8.65625 -1.25,8.65625 -0.6874,0 c -0.3895,0 -1.7368,-0.9794 -3,-2.15625 l -2.3126,-2.125 0.5938,-3.625 c 0.3285,-1.98565 0.615,-5.73125 0.625,-8.34375 l 0,-4.75 1.25,0 z m 305.7812,0.65625 5.7188,6.3125 c 3.1578,3.47108 5.8542,6.61416 6,6.96875 0.1457,0.35459 -1.4293,1.61233 -3.5,2.8125 -2.0708,1.20018 -4.2995,2.20615 -4.9688,2.21875 l -1.2187,0.0312 -5.4687,-7.21875 -5.4376,-7.21875 0.4688,-0.75 c 0.2574,-0.41643 2.2559,-1.31511 4.4375,-1.96875 l 3.9687,-1.1875 z m -232.1874,1.4375 4.0937,1.59375 c 2.24,0.87989 4.0625,1.95403 4.0625,2.375 0,0.42098 -0.9408,2.93567 -2.0938,5.59375 -1.1528,2.6581 -2.5024,5.88182 -3,7.15625 l -0.9062,2.3125 -1.75,-0.53125 c -0.9621,-0.28581 -2.9875,-0.79551 -4.5,-1.15625 -1.5125,-0.36074 -2.75,-0.79204 -2.75,-0.9375 0,-0.14546 0.8564,-2.21759 1.9062,-4.625 1.05,-2.40742 2.6024,-6.05979 3.4376,-8.09375 l 1.5,-3.6875 z m 116,3.0625 0.5624,0.59375 0.5938,0.5625 0,7.78125 0,7.75 -2.25,0.4375 c -1.2375,0.23835 -3.2063,0.4876 -4.375,0.5625 l -2.125,0.15625 -0.625,-3.125 c -0.3438,-1.71875 -0.625,-5.0517 -0.625,-7.40625 l 0,-4.28125 4.4062,-1.53125 4.4376,-1.5 z m 100.4374,0.84375 c 0.7045,0 10.7188,15.79559 10.7188,16.90625 l 0,0.875 -3.75,1.5625 c -2.0625,0.85548 -4.2634,1.56545 -4.9062,1.59375 l -1.1876,0.0625 -4.5624,-8.40625 c -2.5196,-4.62205 -4.5938,-8.82796 -4.5938,-9.34375 l 0,-0.9375 3.875,-1.15625 c 2.1263,-0.63706 4.1127,-1.15625 4.4062,-1.15625 z m -279.6562,0.15625 c 0.8497,0.0897 6.1097,2.47225 7.0938,3.25 0.1876,0.14837 -0.8674,4.44079 -3.8438,15.875 l -0.9688,3.78125 -2.9687,-2.09375 c -1.6238,-1.15621 -2.9375,-2.38657 -2.9375,-2.71875 0,-1.22236 3.2023,-17.78075 3.5,-18.09375 0.015,-0.0156 0.068,-0.006 0.125,0 z m 78.1875,2.625 3.5937,1.3125 3.5938,1.28125 0,1.375 c 0,0.75005 -0.9524,3.58675 -2.125,6.3125 l -2.125,4.96875 -3.625,-0.65625 c -1.9899,-0.35301 -4.0384,-1.01502 -4.5312,-1.46875 l -0.875,-0.8125 2.25,-5.3125 c 1.2374,-2.91696 2.5929,-5.68839 3.0312,-6.15625 l 0.8125,-0.84375 z m 186.3125,2.21875 4.4688,9.625 c 2.4597,5.29991 4.3206,9.80442 4.125,10 -0.1957,0.19559 -2.1227,0.99266 -4.2813,1.78125 -2.1587,0.78859 -4.3801,1.32195 -4.9063,1.1875 l -0.9374,-0.25 -3.7813,-8.9375 c -2.069,-4.91214 -3.7642,-9.46335 -3.7813,-10.125 l -0.031,-1.1875 3.75,-1.0625 c 2.0625,-0.57278 4.1181,-1.02825 4.5625,-1.03125 l 0.8125,0 z m -101.125,0.1875 0.1875,4.40625 c 0.098,2.42185 0.211,5.41875 0.25,6.65625 l 0.062,2.25 -4,0.59375 c -2.2,0.33446 -4.3375,0.672 -4.75,0.75 l -0.75,0.15625 -0.1562,-4.5 c -0.083,-2.475 -0.195,-5.01984 -0.25,-5.625 l -0.094,-1.09375 4.75,-1.8125 4.75,-1.78125 z m -151.3438,0.90625 c 0.4864,-0.0343 2.061,0.37789 3.7813,1 l 3.5625,1.28125 0,1.125 c 0,0.9076 -3.3813,11.59208 -5.4688,17.25 -0.2535,0.6875 -0.6335,1.25 -0.8437,1.25 -1.3224,0 -6.6875,-2.33397 -6.6875,-2.90625 0,-0.97751 5.1256,-18.5212 5.5312,-18.9375 0.023,-0.0235 0.056,-0.0576 0.125,-0.0625 z m 80.1563,2.9375 c 0.5089,-0.0154 2.2576,0.56723 4.1875,1.4375 l 4,1.8125 0,0.90625 c 0,0.49379 -0.6922,2.22107 -1.5312,3.84375 l -1.5313,2.96875 -3.2187,-0.0312 -3.2188,0 -1.4375,-0.90625 -1.4375,-0.9375 1.875,-4.3125 c 1.0354,-2.37927 2.0262,-4.49519 2.1875,-4.71875 0.02,-0.0279 0.052,-0.0603 0.125,-0.0625 z m 155.0625,0.125 0.9062,1.15625 c 1.127,1.48746 7.5375,19.70308 7.0626,20.0625 -0.1951,0.14762 -1.9188,0.75659 -3.8438,1.34375 -1.925,0.58716 -4.1718,1.10005 -5,1.15625 l -1.5,0.125 -2.875,-9.75 c -1.5759,-5.3625 -2.8567,-10.2 -2.8438,-10.75 l 0.031,-1 4.0313,-1.1875 4.0312,-1.15625 z m -221.75,1.875 c 1.7422,0.1522 7.875,1.86445 7.875,2.28125 0,0.12797 -1.2829,3.57505 -2.8438,7.6875 -1.5608,4.11245 -3.1275,8.31419 -3.5,9.34375 l -0.6874,1.875 -3.1876,-0.625 c -1.7617,-0.35237 -3.5871,-0.99338 -4.0312,-1.4375 l -0.8125,-0.8125 3.2187,-8.9375 c 1.76,-4.90806 3.3241,-9.11813 3.5,-9.34375 0.039,-0.0493 0.2199,-0.053 0.4688,-0.0312 z m 120.3125,1.1875 c 0.078,-0.005 0.1091,0.0144 0.125,0.0312 0.1274,0.13589 0.4019,2.05 0.5937,4.25 l 0.3438,4 -4,0.59375 -4,0.625 4.25,0.125 4.25,0.15625 0,4.375 0,4.40625 -4.0938,-1.21875 -4.125,-1.21875 -0.75,-1.4375 c -0.4183,-0.78722 -1.0477,-3.73065 -1.4062,-6.5625 l -0.6562,-5.15625 4.6874,-1.59375 c 2.2574,-0.76916 4.2368,-1.33765 4.7813,-1.375 z m 85.875,1.28125 2.1875,8 c 1.2028,4.4 2.4809,9.18041 2.8438,10.65625 l 0.6562,2.6875 -2.75,0.4375 c -1.5138,0.22925 -3.9378,0.4801 -5.4062,0.5625 l -2.6876,0.15625 -1.5,-6.75 c -0.8312,-3.7125 -1.8145,-8.44331 -2.1874,-10.5 l -0.6876,-3.75 1.375,-0.5 c 0.7476,-0.27268 2.877,-0.60437 4.75,-0.75 l 3.4063,-0.25 z m -125.125,1.34375 1.6563,0.6875 c 0.9126,0.37094 2.8937,1.1087 4.4062,1.65625 l 2.75,1 -0.031,1.15625 c -0.01,0.63369 -1.1823,2.28125 -2.625,3.65625 l -2.625,2.5 -3.5938,1.125 c -4.0186,1.27487 -6.125,1.5879 -6.125,0.90625 0,-1.08549 2.3896,-5.53125 2.9688,-5.53125 0.3512,0 1.1958,-1.62907 1.9062,-3.59375 l 1.3125,-3.5625 z m -67.1563,0.21875 c 0.7062,-0.0206 2.2285,0.12279 3.9063,0.40625 l 4.0625,0.6875 0,1.28125 c 0,0.70674 -0.8564,3.28009 -1.9062,5.6875 -1.05,2.40742 -2.5763,5.95943 -3.375,7.90625 l -1.4376,3.53125 -4.1562,-0.40625 -4.125,-0.375 0,-0.84375 c 0,-0.74069 6.0267,-16.94475 6.625,-17.8125 0.033,-0.048 0.171,-0.0557 0.4062,-0.0625 z m 175.6563,0.9375 1.6563,9.3125 c 0.9129,5.11157 1.6562,9.79072 1.6562,10.40625 l 0,1.125 -1.75,0.46875 c -0.9625,0.25153 -3.1871,0.4987 -4.9375,0.5625 l -3.1875,0.125 -0.5,-1.75 c -0.2786,-0.9625 -1.0256,-5.29966 -1.6562,-9.625 l -1.125,-7.875 0.8124,-0.75 c 0.4598,-0.41684 2.688,-1.03725 4.9376,-1.375 l 4.0937,-0.625 z m -86.6875,2.1875 0.4688,0.75 c 0.2594,0.41987 0.9158,1.95201 1.4687,3.40625 l 1,2.65625 -1.1875,0 c -2.2537,0 -11.75,-2.48029 -11.75,-3.0625 0,-0.31996 2.251,-1.27716 5,-2.15625 l 5,-1.59375 z m -74.375,0.3125 4.3125,0.1875 c 2.3703,0.11055 4.4648,0.371 4.6563,0.5625 0.1914,0.19149 -1.1003,3.7958 -2.8438,8.03125 l -3.1562,7.71875 -4.8126,0 -4.7812,0 0.062,-0.75 c 0.039,-0.4125 1.5319,-4.125 3.3125,-8.25 l 3.25,-7.5 z m 144.125,0.5 0.6562,5.25 c 0.358,2.8875 0.9201,7.16268 1.25,9.53125 l 0.5938,4.3125 -5.375,-0.3125 -5.375,-0.28125 -0.8125,-8.40625 -0.8125,-8.40625 1.3125,-0.84375 1.3125,-0.8125 3.625,-0.0312 3.625,0 z m -128.25,0.8125 4.3125,0.46875 c 2.3647,0.25868 4.4905,0.67794 4.75,0.9375 0.4327,0.43268 -3.0085,8.59166 -4.875,11.53125 l -0.8125,1.25 -4.5312,0 -4.5626,0 0.5,-1.25 c 0.2735,-0.6875 1.5458,-3.88308 2.8438,-7.09375 l 2.375,-5.84375 z m 111.5,1.1875 0,3.34375 c 0,1.84823 0.2961,5.49803 0.6562,8.125 l 0.6563,4.78125 -4.9063,-0.71875 -4.9062,-0.75 -0.75,-1.15625 -0.7188,-1.125 -0.031,-6.25 0,-6.25 5,0 5,0 z m -94.9062,0 3.1874,0.0625 c 1.7618,0.0386 3.9958,0.37615 4.9376,0.75 l 1.7187,0.6875 -2.25,4 -2.25,4 -3.4687,0.59375 c -1.9095,0.34009 -4.0313,0.6776 -4.7188,0.75 l -1.25,0.15625 0,-0.875 c 0,-0.48009 0.9055,-2.95509 2.0312,-5.5 l 2.0626,-4.625 z m 77.9062,1 0,6.125 0,6.125 -4.1562,-0.65625 c -2.2853,-0.3654 -4.5353,-0.90014 -5,-1.1875 l -0.8438,-0.53125 0,-4.9375 0,-4.9375 5,0 5,0 z"
         style="fill:url(#linearGradient1458);fill-opacity:1" />
      <path
         sodipodi:nodetypes="sccccscscsscccccccccccccscccccccccccsccccccsccccccsscccccscccccccccccccccccccccccccccccccccccccccccccccccscccccccccccccccccccscccccccccccccccccccccccsccccccsccccccccccccsccccccccccsccccccccsscccccscccccsccccccccccccccccccccccccccccccccccccsccccsccccccccccccccccccsccccccccccccccccccccccccccscccccccccccssccccccccccccccscccccccccccccccccccsccccscccsccsccccccccccccccscsccc"
         inkscape:connector-curvature="0"
         id="path5675"
         d="m 2135.1586,586.1875 7.125,0.6875 c 3.9074,0.38518 7.3768,0.89226 7.7188,1.09375 l 0.625,0.34375 -2.5938,10.53125 -2.5937,10.53125 -6.4063,0 -6.4062,0 0.5625,-3.75 c 0.3198,-2.0625 0.9006,-7.28348 1.2813,-11.59375 z m -10.7812,0.6875 0.2812,11.6875 0.2813,11.6875 -4.2813,0.375 c -2.3546,0.21137 -5.0479,0.4664 -6,0.5625 l -1.75,0.1875 -0.4687,-2.25 c -0.8421,-3.93577 -2.7644,-20.90928 -2.4063,-21.25 0.1895,-0.18009 3.4938,-0.46365 7.3438,-0.65625 z m 38.0625,1.53125 6.9687,1.28125 6.9688,1.28125 0,0.9375 c 0,0.51762 -2.4271,5.15354 -5.4062,10.28125 l -5.4376,9.3125 -2.0624,-0.5625 c -1.146,-0.30769 -3.7813,-0.5545 -5.8438,-0.5625 l -3.75,0 0,-1.3125 c 0,-1.51924 6.8497,-18.85908 7.875,-19.9375 z m -63.25,0.125 c 0.1056,0.004 0.1694,0.0107 0.1875,0.0312 0.1447,0.16481 1.2605,4.8125 2.4688,10.3125 1.2081,5.5 2.3975,10.75976 2.6562,11.6875 l 0.4688,1.6875 -3.7813,0.40625 c -2.0885,0.22849 -4.8897,0.3687 -6.2187,0.3125 l -2.4376,-0.0937 -3.3124,-9.96875 c -1.8335,-5.47893 -3.3438,-10.50415 -3.3438,-11.15625 l 0,-1.1875 6.625,-1.15625 c 3.1845,-0.55455 5.9481,-0.9033 6.6875,-0.875 z m -23.875,3.84375 0.5937,0.75 c 1.2751,1.56392 9.1817,21.34963 8.7188,21.8125 -0.269,0.26902 -2.4615,0.86972 -4.875,1.34375 -2.4135,0.47402 -4.6799,0.90845 -5.0625,0.96875 -0.7616,0.11998 -12.238,-20.83322 -11.6563,-21.28125 0.1975,-0.15193 3.0325,-1.02892 6.3126,-1.9375 z m 112.7813,0.84375 1.125,0.4375 c 0.6292,0.23682 3.7437,1.17875 6.9062,2.09375 3.1625,0.915 5.75,1.99003 5.75,2.375 0,0.38497 -3.4924,4.1861 -7.75,8.46875 l -7.7188,7.8125 -1.1562,-0.4375 c -0.6222,-0.23874 -3.2046,-0.7433 -5.75,-1.125 l -4.625,-0.71875 0,-0.96875 c 0,-0.54602 2.9605,-4.81575 6.5938,-9.46875 z m 24.625,8.0625 6.5937,2.28125 6.5625,2.28125 -0.3438,1 c -0.1821,0.54642 -4.3441,3.35143 -9.25,6.21875 l -8.9062,5.21875 -1.125,-0.375 c -0.6171,-0.20535 -3.1979,-0.71104 -5.75,-1.09375 l -4.6562,-0.6875 -0.4688,-0.78125 -0.5,-0.78125 8.9375,-6.65625 z m 23.3437,8.9375 6.125,2.46875 6.0937,2.4375 0.3438,0.96875 0.3125,0.96875 -9.2813,2.53125 c -11.4695,3.1122 -10.3312,2.99566 -17.1562,1.625 l -5.6875,-1.15625 0.3125,-0.9375 0.3125,-0.9375 9.3125,-4 z m 111.3125,2.125 8,0.25 8,0.28125 3.1875,12 c 1.7635,6.6 3.223,12.76468 3.25,13.71875 l 0.062,1.75 -6.25,-0.65625 c -3.4375,-0.3467 -7.15,-0.93631 -8.25,-1.34375 l -2,-0.75 -4.4062,-11.71875 -4.4376,-11.6875 1.4376,-0.90625 z m 30.5,0.71875 9.6562,0.625 c 5.3074,0.34863 9.7593,0.75923 9.9063,0.90625 0.147,0.14702 0.5982,6.74084 1,14.65625 l 0.7188,14.40625 -8.375,-0.75 c -4.6187,-0.40157 -8.5068,-0.82188 -8.6251,-0.9375 -0.3426,-0.33502 -4.2812,-25.40616 -4.2812,-27.25 z m -46.4375,0.3125 5.375,10.84375 5.3437,10.875 -0.625,1 -0.5937,1 -2.2813,-0.3125 c -1.2507,-0.1782 -4.4284,-0.60254 -7.0624,-0.9375 l -4.8126,-0.625 -6.5624,-9.84375 -6.5626,-9.875 0.6876,-1.0625 0.6562,-1.0625 8.2188,0 z m 80.375,1.78125 4.7813,0.59375 c 2.6271,0.31652 7.3687,0.86828 10.5312,1.21875 l 5.75,0.625 0,1.125 c -0.018,2.19833 -3.033,27.14569 -3.4062,28.1875 l -0.375,1.0625 -8.375,-1.0625 -8.3438,-1.0625 -0.2812,-15.34375 z m -110.4375,0.0312 7.1875,8.78125 7.2187,8.75 -0.4687,0.71875 -0.4375,0.71875 -4.25,-0.4375 c -2.3374,-0.2509 -5.6,-0.67513 -7.25,-0.9375 l -3,-0.46875 -8,-7.375 -8,-7.375 0.8438,-0.84375 0.8124,-0.84375 7.6876,-0.34375 z m -149.875,1.15625 4.6875,0.65625 4.6875,0.625 0,0.9375 c 0,0.51526 -2.3625,4.92695 -5.25,9.8125 l -5.25,8.90625 -1.5,0.40625 c -0.825,0.2356 -2.7455,0.4987 -4.25,0.5625 l -2.7188,0.125 1.9688,-5 c 1.092,-2.75 2.9232,-7.3625 4.0625,-10.25 1.1393,-2.8875 2.4078,-5.61475 2.8125,-6.03125 z m 120.6875,1 8.5313,5.875 c 4.7017,3.22633 8.7282,6.3724 8.9374,7 l 0.375,1.15625 -2.8124,0.0937 -2.8438,0.0937 6.25,1.375 6.2188,1.375 9.0312,6.03125 9,6.0625 0,0.96875 c 0,1.46305 -0.2568,1.38807 -11.2812,-4.15625 l -10.2188,-5.15625 -17,-4.71875 -17,-4.75 -8.2188,-1.15625 -8.2187,-1.1875 -3.2813,0.53125 c -1.803,0.29097 -10.0312,0.77635 -18.2812,1.0625 l -15,0.53125 -7,1.46875 c -8.0771,1.71227 -9.5,1.81769 -9.5,0.71875 l 0,-0.78125 9.8438,-4.15625 9.8437,-4.15625 5.6563,0.59375 5.6562,0.59375 0,0.96875 0,1 4.75,-0.53125 c 2.6125,-0.28673 7.9,-1.00644 11.75,-1.59375 3.85,-0.5873 10.6,-1.55304 15,-2.15625 4.4,-0.60321 10.6589,-1.54082 13.9062,-2.0625 z m -101.4063,0.0312 c 0.8793,0.006 3.2813,0.28409 5.3438,0.625 l 3.75,0.625 0,0.875 c 0,0.47961 -3.4386,4.1391 -7.625,8.125 l -7.5938,7.25 -3.1562,0.59375 c -1.7261,0.3401 -3.6875,0.6776 -4.375,0.75 l -1.25,0.15625 0,-1.03125 c 0,-0.55533 2.9979,-4.83033 6.6562,-9.5 l 6.6563,-8.46875 z m -27.75,0 -0.625,2.8125 c -0.34,1.54791 -1.5962,6.58406 -2.8124,11.21875 l -2.2188,8.4375 -3,0.65625 c -1.65,0.35232 -3.4146,0.6849 -3.9062,0.75 l -0.875,0.125 0.6874,-8.25 c 0.374,-4.5375 0.9247,-9.9375 1.25,-12 l 0.5938,-3.75 5.4688,0 z m -18.1562,0.71875 0,12.0625 0,12.09375 -3.25,0.375 c -1.7875,0.22183 -3.5666,0.4745 -3.9688,0.5625 l -0.75,0.1875 -0.4687,-2.25 c -0.2648,-1.2375 -1.0025,-6.46644 -1.625,-11.59375 l -1.125,-9.3125 0.5625,-0.5625 c 0.3148,-0.31476 2.8317,-0.7971 5.5938,-1.0625 z m 64,1.25 5.5312,0.65625 5.5313,0.65625 -0.3437,1.03125 c -0.189,0.56665 -4.5671,3.40783 -9.75,6.3125 l -9.4376,5.28125 -3.5,0.375 c -1.9354,0.20817 -4.0937,0.43875 -4.7812,0.53125 l -1.25,0.1875 0,-0.78125 c 0,-0.42353 4.0517,-3.79353 9,-7.5 z m 259.7188,0.2812 c 2.335,0.0529 19.5373,2.77096 20.3125,3.25 l 0.75,0.46875 -3.875,13.25 c -2.1431,7.28969 -4.1165,13.84375 -4.375,14.53125 l -0.4688,1.25 -1.5,0 c -0.8198,0 -4.8838,-0.50814 -9.0312,-1.125 l -7.5313,-1.12485 0,-1.625 c -6e-4,-1.40354 5.0641,-28.27367 5.4375,-28.84375 0.014,-0.0216 0.1256,-0.0348 0.2813,-0.0312 z m -341.9688,0.5 1.6875,7.875 c 0.9358,4.33077 2.1048,9.40787 2.5937,11.28125 l 0.9063,3.40625 -0.5313,0.84375 -0.5312,0.84375 -3.8438,0 -3.875,0 -3.6874,-11.0625 c -2.0275,-6.08464 -3.4762,-11.27382 -3.2188,-11.53125 0.2574,-0.25743 2.7458,-0.7363 5.5,-1.0625 z m -18.0312,2.1875 4.25,10.1875 c 2.3256,5.60383 4.4523,10.74339 4.7187,11.4375 l 0.4687,1.28125 -2.8124,0.40625 c -1.5557,0.2333 -3.5589,0.51135 -4.4376,0.59375 l -1.5937,0.15625 -5.6875,-10.96875 -5.6875,-10.9375 3.7813,-0.65625 c 2.0822,-0.35165 4.5174,-0.82188 5.4062,-1.0625 z m 179.875,5.0625 c -1.6042,-0.008 -2.7292,0.1466 -2.5,0.34375 0.2291,0.19715 2.2062,0.63149 4.4062,0.96875 l 4,0.625 -1.5,-0.96875 -1.5,-0.9375 z m 39.4062,8.84375 1.75,0.5 c 0.9625,0.271 3.325,0.79913 5.25,1.15625 1.925,0.35712 4.2212,0.82004 5.0938,1.0625 l 1.5937,0.46875 7.1563,8.40625 c 3.9398,4.62708 7.1562,8.87935 7.1562,9.46875 0,1.51709 -0.3884,1.43505 -6.7812,-1.8125 l -5.7188,-2.90625 -7.75,-6.8125 -7.75,-6.8125 0,-1.34375 z m 24.75,5.0625 4.875,1.0625 c 2.6855,0.57287 5.8867,1.24977 7.125,1.53125 l 2.25,0.53125 5.5,10.96875 c 3.0242,6.03017 5.5,11.18459 5.5,11.46875 0,0.96449 -1.9262,0.52965 -7.2812,-1.65625 l -5.3438,-2.1875 -6.8438,-10.34375 -6.8124,-10.34375 0.5,-0.5 z m 26.0312,5.5 c 3.0173,0.0249 12.5612,1.78853 13.5313,2.625 0.9108,0.78525 6.6213,22.41918 6.6563,25.21875 0.027,2.14849 0.6217,2.19448 -6.5,-0.5625 l -5.9688,-2.3125 -4.6562,-12.1875 -4.6563,-12.1875 0.75,-0.46875 c 0.1204,-0.0744 0.4127,-0.12855 0.8437,-0.125 z m 26,4.4687 7.3438,1.3125 7.3125,1.3125 0.6563,4 c 0.3558,2.19838 0.9029,8.8375 1.2187,14.75 l 0.5625,10.75 -0.75,0 c -1.4527,0 -11.6229,-3.19478 -12.3438,-3.875 -0.3983,-0.37585 -1.6997,-6.66383 -2.875,-13.96875 l -2.125,-13.28125 0.5,-0.5 z m 27.7813,5.1252 c 0.8566,0 4.6816,0.4944 8.5,1.125 l 6.9375,1.15625 0,2.09375 c -0,1.1569 -0.6846,7.75 -1.5,14.625 -0.8154,6.875 -1.495,12.86293 -1.5,13.3125 l 0,0.8125 -1.75,-0.46875 c -0.9625,-0.26404 -4.1125,-1.03461 -7,-1.6875 l -5.25,-1.1875 0,-14.90625 0,-14.875 z m 28.3438,4.3125 8.0625,1.15625 c 4.421,0.64088 8.2457,1.3707 8.5,1.625 0.3753,0.37538 -6.1559,23.90316 -7.9688,28.71875 l -0.5,1.3125 -4.7187,-0.71875 c -2.6058,-0.39076 -5.8642,-1.04409 -7.25,-1.4375 l -2.5313,-0.71875 0.1563,-0.875 c 0.8512,-4.95346 5.6365,-28.02149 5.9062,-28.46875 z m 28.6875,7.75 c 0.2206,-0.22916 0.4062,5.73334 0.4062,13.25 l 0,13.6875 -4.4375,0 -4.4375,0 -0.625,-1 -0.625,-1 4.6563,-12.25 c 2.5598,-6.74072 4.8418,-12.45833 5.0625,-12.6875 z"
         style="fill:url(#linearGradient1458);fill-opacity:1" />
      <path
         inkscape:connector-curvature="0"
         id="path5747"
         d="m 2053.7524,598.4375 6.1875,10 c 3.4021,5.50466 6.0156,10.17005 5.8125,10.34375 -0.2032,0.1737 -1.725,0.79312 -3.375,1.375 -1.65,0.58187 -3.9742,1.0816 -5.1562,1.125 l -2.1563,0.0937 -6.7187,-9.0625 c -3.7011,-4.97084 -6.5521,-9.16417 -6.3438,-9.34375 0.2083,-0.17958 2.9364,-1.28427 6.0625,-2.4375 l 5.6875,-2.09375 z m -20.5312,7.9375 c 0.823,0 14.8588,17.10988 14.4062,17.5625 -0.252,0.25199 -2.4263,1.08492 -4.8438,1.84375 -2.4174,0.75883 -4.6452,1.41435 -4.9374,1.46875 -0.5342,0.0994 -9.9715,-9.48814 -13.3438,-13.5625 l -1.8125,-2.1875 5.0625,-2.5625 c 2.7845,-1.41096 5.2347,-2.5625 5.4688,-2.5625 z m -18.125,9 7.4374,6.65625 7.4376,6.65625 -0.8126,0.8125 c -0.4482,0.44826 -2.6258,1.44842 -4.8124,2.21875 l -3.9688,1.40625 -1,-0.59375 c -2.475,-1.4079 -13.5,-10.59086 -13.5,-11.25 0,-0.40428 2.0894,-1.8953 4.625,-3.3125 l 4.5938,-2.59375 z m -16.4063,9.9375 6.5937,4.59375 c 3.6231,2.53269 6.5938,4.97341 6.5938,5.40625 0,0.43284 -1.6875,1.46632 -3.75,2.3125 -5.1113,2.09702 -4.6439,2.16882 -11.875,-1.875 l -6.4375,-3.59375 1.125,-1.375 c 0.631,-0.7603 2.6535,-2.31569 4.4687,-3.4375 l 3.2813,-2.03125 z m 72.0625,0.375 6.0625,9.71875 c 3.3351,5.35832 6.0625,9.98719 6.0625,10.28125 0,0.29406 -1.2375,0.73962 -2.75,0.96875 -1.5125,0.22912 -3.4878,0.4801 -4.4062,0.5625 l -1.6876,0.15625 -6.5624,-8.96875 c -3.619,-4.93065 -6.5938,-9.37853 -6.5938,-9.875 l 0,-0.90625 4.9375,-0.96875 4.9375,-0.96875 z m -18.4688,3.6875 c 0.676,0 14.5938,16.53994 14.5938,17.34375 l 0,0.65625 -5.3438,0 -5.3124,0 -6.6876,-7.4375 c -3.6676,-4.08188 -6.6562,-7.62216 -6.6562,-7.875 0,-0.39874 8.0177,-2.6875 9.4062,-2.6875 z m -18.0937,4.0625 1.25,0.71875 c 2.264,1.28824 13.4375,12.33122 13.4375,13.28125 l 0,0.9375 -4.8438,0 -4.8437,0 -7.1875,-5.6875 -7.1875,-5.6875 0.7813,-0.71875 c 0.4257,-0.40208 2.5392,-1.2008 4.6874,-1.78125 l 3.9063,-1.0625 z m -50.3125,2.65625 5.75,2.59375 5.75,2.59375 -0.1875,0.71875 c -0.097,0.40223 -2.1218,1.53396 -4.5,2.5 l -4.3125,1.75 -1.1875,-0.375 c -0.653,-0.21459 -3.0156,-0.89834 -5.25,-1.5 l -4.0625,-1.09375 0,-0.8125 c 0,-0.454 1.7963,-2.09783 4,-3.625 l 4,-2.75 z m 33.0938,2.03125 6.9687,4.625 c 3.8215,2.5411 6.9375,4.85438 6.9375,5.125 0,0.27062 -2.6916,0.5 -6,0.5 l -6.0312,0 -5.4688,-3.09375 c -3.0167,-1.70249 -5.7262,-3.4633 -6,-3.90625 l -0.5,-0.8125 5.0625,-1.21875 5.0313,-1.21875 z m -18.0938,5.25 c 2.0591,-0.0159 11.9478,4.32262 11.9688,5.25 l 0.031,0.75 -6.625,0 -6.6562,0 -3.8438,-1.15625 -3.875,-1.1875 0,-0.78125 0,-0.78125 3.75,-1.0625 c 2.0625,-0.57278 4.425,-1.02525 5.25,-1.03125 z m -29.625,3.84375 9.5625,0.6875 9.5625,0.6875 0.8125,0.75 0.8437,0.78125 -4.8437,0.65625 c -2.6539,0.36198 -8.0561,1.14487 -12.0313,1.75 l -7.25,1.09375 -6.75,5.8125 c -6.8172,5.84795 -8.2812,6.72058 -8.2812,4.96875 0,-1.72313 2.3013,-6.03125 3.2188,-6.03125 l 0.9062,0 -0.5938,-0.9375 -0.5624,-0.9375 1.125,-2.46875 1.125,-2.46875 5.3124,-0.65625 5.3438,-0.65625 1.25,-1.53125 1.25,-1.5 z m -22.25,5.125 -0.3125,4.15625 -0.3125,4.1875 -3.5,1.25 c -1.925,0.69163 -4.2249,1.30195 -5.125,1.34375 l -1.6562,0.0937 -0.6876,-4.59375 c -0.3785,-2.52541 -0.5225,-4.7268 -0.3437,-4.875 0.1787,-0.1482 2.9304,-0.54629 6.125,-0.90625 l 5.8125,-0.65625 z m -21.375,2.78125 1.625,4.8125 c 2.1376,6.27349 2.1459,6.19466 -1.625,7.84375 -1.7875,0.78171 -4.0153,1.4551 -4.9375,1.5 l -1.6563,0.0937 -2.5937,-5.6875 -2.625,-5.6875 0.7813,-0.75 c 0.4261,-0.41976 3.0912,-1.06735 5.9062,-1.4375 l 5.125,-0.6875 z m -21.2188,3.25 c 0.2412,0 2.0254,3.14078 3.9688,7 l 3.5312,7.03125 -2.25,0.84375 c -1.249,0.46181 -2.9562,1.06445 -3.7812,1.375 -0.825,0.31055 -2.0555,0.61275 -2.7188,0.65625 l -1.1874,0.0937 -4.0626,-6.9375 c -2.2242,-3.80846 -4.0312,-7.13528 -4.0312,-7.40625 0,-0.39972 8.947,-2.65625 10.5312,-2.65625 z m -18.9687,4 4.375,7.375 c 2.4138,4.07108 4.3177,7.78358 4.2187,8.25 -0.099,0.46642 -1.6269,1.38559 -3.4062,2.03125 -1.7792,0.64566 -3.7897,1.2082 -4.4375,1.25 l -1.1563,0.0937 -5.0312,-8.25 -5,-8.25 3.6875,-1.1875 c 2.0324,-0.64523 4.3791,-1.2077 5.2187,-1.25 l 1.5313,-0.0625 z m 59.6875,0.0312 0.9062,0.5625 0.9063,0.5625 -0.625,3.65625 -0.6563,3.6875 -3.125,2.65625 -3.1562,2.6875 -0.625,-1.1875 c -0.3506,-0.64816 -0.9283,-2.95625 -1.2812,-5.15625 l -0.6563,-4 4.1563,-1.75 4.1562,-1.71875 z m -77.625,4.25 c 0.1021,0.10942 2.5019,3.97212 5.3438,8.5625 l 5.1874,8.34375 -0.6562,0.65625 c -0.3532,0.35962 -2.0644,1.16917 -3.8125,1.8125 -1.7481,0.64333 -3.6429,1.0436 -4.1875,0.90625 -1.1736,-0.29601 -10.49,-15.58399 -10.5,-17.21875 l 0,-1.125 4.2188,-1.0625 c 2.3197,-0.58881 4.3042,-0.98441 4.4062,-0.875 z m 61.4375,2.625 0.9063,0.5625 c 0.489,0.30227 1.6465,2.86704 2.5937,5.71875 l 1.7187,5.1875 -3.3437,2.8125 -3.3437,2.78125 -0.75,-0.75 c -0.4075,-0.40944 -1.8866,-3.31248 -3.2813,-6.46875 l -2.5313,-5.75 4.0313,-2.03125 4,-2.0625 z m -77.9687,2.09375 c 0.8871,0 11.2505,17.9995 10.6874,18.5625 -0.199,0.19912 -1.9126,1.01959 -3.8124,1.84375 -1.9,0.82417 -3.7682,1.50975 -4.125,1.53125 -0.7533,0.0454 -9.8438,-17.26933 -9.8438,-18.75 l 0,-1 3.1562,-1.09375 c 1.7322,-0.60381 3.5046,-1.09375 3.9376,-1.09375 z m 62.8124,5 3.5626,6.34375 c 1.9502,3.48722 3.5212,6.75285 3.5312,7.25 0.01,0.49714 -1.4611,2.09232 -3.25,3.5625 -1.7889,1.47018 -3.4438,2.46238 -3.6875,2.21875 -0.2436,-0.24362 -2.3657,-3.68779 -4.7187,-7.65625 l -4.2813,-7.1875 0.7187,-0.71875 c 0.3932,-0.39191 2.4003,-1.4307 4.4376,-2.28125 l 3.6874,-1.53125 z m -15.9374,6.96875 2.3437,3.75 c 1.292,2.06606 3.5786,5.8542 5.0625,8.40625 l 2.6875,4.65625 -3.2813,2.03125 c -1.8043,1.12175 -3.8235,1.94255 -4.5,1.84375 l -1.25,-0.15625 -4.9374,-8 -4.9376,-8 0.6563,-0.71875 c 0.3705,-0.38381 2.3528,-1.39275 4.4063,-2.25 l 3.75,-1.5625 z m -15.75,7.09375 c 0.089,0.004 0.13,0.0278 0.1562,0.0625 1.753,2.32333 10.8267,17.96069 10.5312,18.15625 -0.2183,0.14455 -1.9812,0.99878 -3.9062,1.90625 -1.925,0.90747 -3.934,1.5473 -4.4688,1.40625 -0.8916,-0.23514 -11.2963,-16.30743 -11.4687,-17.71875 -0.079,-0.64699 7.8246,-3.87146 9.1563,-3.8125 z m -16.1876,6.15625 4.125,7.125 c 2.2541,3.92396 4.7293,8.18353 5.5313,9.46875 1.7268,2.76716 1.7674,2.76082 -3.25,4.59375 -2.1587,0.78859 -4.3674,1.31579 -4.875,1.1875 -0.8151,-0.206 -10.5265,-17.33024 -10.5625,-18.625 -0.01,-0.27934 2.0433,-1.23037 4.5312,-2.125 l 4.5,-1.625 z"
         style="fill:url(#linearGradient1458);fill-opacity:1;stroke:none" />
      <path
         inkscape:export-ydpi="2400"
         inkscape:export-xdpi="2400"
         inkscape:export-filename="/home/kelvin/RNA—Paths.png"
         sodipodi:nodetypes="cccc"
         inkscape:connector-curvature="0"
         id="path3898-7-6-0"
         d="m 1286.8464,664.04977 -1.2891,20.16918 c 3.4056,0.72892 4.1903,0.36049 7.9788,0.41606 l 1.703,-19.55905"
         style="fill:url(#linearGradient1458);fill-opacity:1;stroke:none" />
      <path
         inkscape:export-ydpi="2400"
         inkscape:export-xdpi="2400"
         inkscape:export-filename="/home/kelvin/RNA—Paths.png"
         sodipodi:nodetypes="cccc"
         inkscape:connector-curvature="0"
         id="path3898-7-6-9"
         d="m 1261.8044,703.03579 -3.4813,-14.68376 c -3.5953,-0.46046 -5.0444,-1.08737 -7.6034,-0.35185 l 4.353,14.17573"
         style="fill:url(#linearGradient1458);fill-opacity:1;stroke:none" />
    </g>
    <path
       style="fill:#ff0070;fill-opacity:0.77948719;stroke:none"
       d="m 2071.0275,717.0044 c -11.3925,-54.40855 -101.085,-98.91599 -136.1986,-84.95895 -31.3626,12.46606 -46.0412,116.39537 27.3491,162.79425 48.2433,30.50043 118.0849,-33.7285 108.8495,-77.8353 z"
       id="path3872"
       inkscape:connector-curvature="0"
       sodipodi:nodetypes="ssss" />
    <rect
       style="opacity:1;fill:none;fill-opacity:1;stroke:#7c7c7c;stroke-width:15;stroke-linejoin:miter;stroke-miterlimit:4;stroke-dasharray:none;stroke-dashoffset:0;stroke-opacity:1"
       id="rect1001-3"
       width="372.35565"
       height="372.35565"
       x="1824.9111"
       y="450.62741"
       ry="6.5020189" />
  </g>
</svg>
